<?xml version="1.0" encoding="utf-8"?>
<!-- Generator: Adobe Illustrator 16.0.0, SVG Export Plug-In . SVG Version: 6.00 Build 0)  -->
<!DOCTYPE svg PUBLIC "-//W3C//DTD SVG 1.1//EN" "http://www.w3.org/Graphics/SVG/1.1/DTD/svg11.dtd">
<svg version="1.1" id="Layer_1" xmlns="http://www.w3.org/2000/svg" xmlns:xlink="http://www.w3.org/1999/xlink" x="0px" y="0px"
	 width="386.704px" height="383.954px" viewBox="0 0 386.704 383.954" enable-background="new 0 0 386.704 383.954"
	 xml:space="preserve">
<g>
	<path fill="#585858" d="M2.75,340.458c0-1.25,0-2.499,0-3.749c1.178-2.499,1.176-5,0-7.499c0-1.25,0-2.5,0-3.75
		c1.374-0.887,0.979-2.46,1.26-3.681c4.83-20.917,21.209-36.275,42.421-39.645c4.707-0.748,4.716-0.751,2.86-5.237
		c-9.324-22.546-18.629-45.099-27.988-67.629c-6.142-14.78-12.365-29.527-18.553-44.289c0-1.5,0-3,0-4.499
		c2.26-6.444,7.424-9.313,13.416-11.691c15.5-6.151,30.846-12.695,46.262-19.059c9.004-3.717,15.532-1.007,19.264,7.979
		c10.883,26.21,21.791,52.41,32.563,78.665c1.064,2.593,1.896,3.883,5.023,2.818c2.548-0.865,5.395-0.978,8.125-1.144
		c2.369-0.143,3.135-0.684,2.506-3.339c-8.889-37.46-17.736-74.933-26.378-112.452C101.72,94.4,98.609,86.7,98.839,78.501
		c0.591-21.099,1.433-42.189,2.237-63.282c0.25-6.563,3.274-11.374,9.43-14.048c0.624-0.271,1.549-0.205,1.73-1.17c2,0,4,0,5.999,0
		c6.637,1.766,10.175,6.617,13.228,12.403c9.066,17.188,18.443,34.214,27.707,51.3c1.013,1.867,1.975,3.75,2.461,5.836
		c7.279,31.192,14.555,62.385,21.838,93.575c2.879,12.335,5.774,24.667,8.768,37.444c4.376-3.399,8.275-6.717,12.783-9.046
		c2.436-1.258,3.303-2.686,3.182-5.467c-0.979-22.538,0.695-44.924,4.374-67.162c0.394-2.381-0.423-3.966-1.813-5.716
		c-13.386-16.829-12.664-36.959,1.643-52.69c7.814-8.596,15.314-17.46,20.665-27.896c3.678-7.177,5.79-14.677,3.707-22.729
		c-1.123-4.342-0.02-7.499,3.695-9.854c1.499,0,2.999,0,4.499,0c11.913,9.651,21.983,20.937,29.586,34.267
		c16.039,28.125,15.993,55.667-3.54,82.291c-0.884,1.206-1.211,2.329-1.158,3.759c0.703,19.386-0.235,38.688-3.017,57.893
		c-0.27,1.862-0.073,2.894,2.174,3.368c6.229,1.313,12.256,3.386,17.858,6.436c2.176,1.186,2.889,0.555,3.709-1.475
		c4.199-10.383,8.373-20.781,12.841-31.049c5.907-13.578,10.26-27.523,11.438-42.371c0.274-3.459,2.351-5.879,5.3-7.707
		c14.302-8.863,28.547-17.816,42.84-26.691c5.828-3.617,10.021-1.829,11.579,4.881c2.085,8.979,3.979,18.004,6.215,26.946
		c1.973,7.896,3.104,16.001,5.908,23.688c0,1.25,0,2.5,0,3.75c-1.411,1.991-2.729,4.059-4.25,5.961
		c-6.576,8.221-12.183,17.049-16.231,26.766c-10.577,25.384-21.009,50.829-31.525,76.238c-0.442,1.07-0.758,2.095-0.562,3.25
		c1.659,9.798,1.977,19.605,0.15,29.42c-0.274,1.478,0.248,2.053,1.724,2.012c0.993-0.028,1.992,0.109,2.988,0.188
		c24.928,1.954,44.876,21.94,46.854,46.941c1.984,25.077-14.851,48.046-39.326,53.836c-1.851,0.438-3.929,0.054-5.564,1.358
		c-98.238,0-196.476,0-294.714,0c-0.392-1.142-1.455-0.729-2.224-0.915c-21.452-5.27-34.95-18.498-40.219-40.037
		C3.594,342.145,4.042,340.903,2.75,340.458z M194.771,371.171c46.855,0,93.712,0.107,140.566-0.046
		c22.815-0.075,40.503-19.416,38.458-41.527c-2.128-23.01-22.981-38.683-45.867-34.471c-6.248,1.15-9.811-2.732-8.128-8.985
		c2.928-10.88,3.717-21.835,1.814-32.998c-5.583-32.752-31.188-57.062-65.499-60.82c-31.152-3.415-61.577,14.012-74.642,44.185
		c-3.664,8.465-6.106,9.082-14.003,4.046c-18.103-11.547-37.396-13.804-57.111-5.244c-23.146,10.051-35.359,28.311-37.123,53.495
		c-0.336,4.797-3.006,7.721-7.073,7.354c-1.479-0.133-2.923-0.612-4.384-0.937c-27.158-5.999-51.85,19.344-45.172,46.366
		c4.406,17.839,19.471,29.547,38.347,29.568C101.563,371.209,148.167,371.174,194.771,371.171z M62.199,274.462
		c6.311-22.559,19.082-38.836,39.252-49.065c2.039-1.034,2.082-1.936,1.199-3.725c-1.153-2.34-2.23-4.754-2.979-7.244
		c-0.766-2.546-1.942-2.46-4.05-1.54c-6.616,2.884-13.303,5.608-19.999,8.307c-4.074,1.641-7.669,0.338-9.107-3.13
		c-1.477-3.558,0.091-6.938,4.183-8.688c4.576-1.959,9.262-3.672,13.792-5.729c2.979-1.354,7.78-1.54,8.463-4.344
		c0.646-2.652-2.177-6.101-3.317-9.255c-0.621-1.723-1.365-1.912-2.998-1.16c-3.274,1.511-6.629,2.871-10.024,4.086
		c-3.419,1.224-6.619-0.271-8.015-3.485c-1.328-3.056-0.251-6.242,2.804-8.004c1.07-0.617,2.287-0.979,3.405-1.521
		c2.891-1.4,7.681-1.653,8.326-4.121c0.687-2.605-2.099-6.073-3.211-9.221c-0.664-1.877-1.547-2.051-3.305-1.291
		c-6.626,2.864-13.312,5.596-19.992,8.329c-4.586,1.876-8.201,0.702-9.695-3.059c-1.478-3.719,0.16-6.791,4.695-8.699
		c4.475-1.884,8.975-3.701,13.449-5.581c2.861-1.202,7.135-1.765,8.17-3.886c1.193-2.446-2.059-5.727-2.881-8.796
		c-0.738-2.751-2.016-2.608-4.236-1.677c-15.611,6.547-31.248,13.034-46.938,19.389c-2.633,1.065-3.208,2.001-2.035,4.79
		c11.19,26.62,22.218,53.313,33.289,79.983C54.25,255.296,58.053,264.466,62.199,274.462z M153.166,89.777
		c-3.197,3.193-6.133,5.9-9.793,7.572c-1.694,0.774-1.16,1.978-0.889,3.148c1.268,5.463,2.603,10.912,3.854,16.379
		c0.912,3.979-0.934,7.376-4.397,8.271c-3.74,0.965-6.936-1.101-7.992-5.345c-1.326-5.321-2.492-10.684-3.798-16.01
		c-0.268-1.087-0.055-2.661-1.938-2.66c-4.121,0.001-8.044-1.11-12.244-2.489c0.119,0.909,0.146,1.508,0.279,2.081
		c3.646,15.533,7.318,31.063,10.955,46.599c5.313,22.697,10.588,45.404,15.938,68.092c0.274,1.164,0.081,2.695,2.069,3.066
		c3.997,0.742,7.936,1.804,11.948,2.744c0.434-1.261-0.05-2.301-0.297-3.354c-5.043-21.48-10.096-42.959-15.136-64.439
		c-1.159-4.945,0.429-8.482,4.183-9.41c4.097-1.014,7.107,1.322,8.305,6.435c3.774,16.145,7.54,32.29,11.33,48.431
		c2.09,8.903,4.222,17.798,6.447,27.167c2.766-4.228,5.001-8.094,7.703-11.603c1.562-2.027,1.809-3.813,1.252-6.172
		C171.693,168.968,162.5,129.639,153.166,89.777z M249.867,22.558c-1.401,7.539-4.117,13.903-7.658,19.953
		c-5.833,9.967-13.227,18.733-20.934,27.256c-9.178,10.148-9.588,24.734-1.039,35.257c1.363,1.678,2.854,2.528,5.032,2.645
		c10.846,0.572,21.686,1.242,32.523,1.918c1.445,0.089,2.561-0.057,3.541-1.391c9.352-12.732,13.757-26.881,11.156-42.578
		c-2.147-12.967-7.662-24.686-15.592-35.202C254.896,27.759,252.899,25.073,249.867,22.558z M354.291,99.229
		c-9.036,5.635-17.137,10.728-25.295,15.726c-1.249,0.766-1.54,1.716-1.701,3.024c-1.297,10.563-3.712,20.867-7.639,30.766
		c-0.775,1.953-0.201,3.387,0.584,4.934c5.787,11.398,19.286,16.901,31.493,12.974c2.057-0.662,3.341-1.703,4.211-3.737
		c3.396-7.938,7.487-15.59,13.017-22.183c3.522-4.2,4.248-8.021,2.76-13.135c-2.147-7.382-3.619-14.96-5.604-23.42
		c-3.205,7.774-5.995,14.553-8.793,21.326c-0.77,1.862-1.61,3.708-3.535,4.662c-2.604,1.29-5.13,1.076-7.293-0.902
		c-2.44-2.232-2.539-4.976-1.336-7.89C348.052,114.366,350.938,107.357,354.291,99.229z M348.212,180.972
		c-15.236,0.094-21.741-2.592-35.58-14.438c-3.382,8.201-6.567,16.434-10.188,24.473c-1.618,3.593-2.163,6.11,1.896,8.426
		c2.427,1.385,4.329,3.734,6.358,5.762c7.117,7.103,12.585,15.386,17.188,24.842C334.734,213.508,341.379,197.467,348.212,180.972z
		 M112.283,68.207c-0.063,0.001-0.127,0.001-0.189,0.001c-0.123,2.119,0,4.287-0.42,6.346c-0.822,4.027,1.104,6.572,4.002,8.888
		c11.729,9.368,28.749,3.58,32.274-11.002c0.276-1.146,0.267-2.113-0.337-3.201c-3.074-5.556-6.121-11.126-9.043-16.763
		c-0.806-1.555-1.451-1.575-2.761-0.642c-6.157,4.399-13.058,6.076-20.534,5.136c-2.252-0.282-3.197,0.172-3.035,2.631
		C112.429,62.458,112.283,65.337,112.283,68.207z M220.668,168.898c0.039,0,0.078,0.003,0.117,0.006
		c0,4.244,0.051,8.489-0.022,12.733c-0.031,1.903,0.427,2.293,2.37,1.665c9.211-2.973,18.669-4.416,28.371-4.054
		c1.214,0.045,2.383,0.38,2.563-1.634c0.657-7.328,1.485-14.644,2.313-21.954c0.165-1.456-0.164-2.016-1.74-1.896
		c-10.264,0.776-20.443-0.252-30.583-1.686c-2.099-0.297-2.57,0.387-2.643,2.233C221.225,159.179,220.925,164.037,220.668,168.898z
		 M245.881,140.978c3.116,0,6.232-0.045,9.348,0.021c1.44,0.03,1.974-0.509,1.965-1.954c-0.031-4.859,0.02-9.721,0.063-14.58
		c0.012-1.24-0.14-2.121-1.748-2.205c-9.459-0.492-18.915-1.047-28.368-1.635c-1.543-0.096-2.233,0.354-2.397,1.982
		c-0.462,4.584-0.979,9.166-1.676,13.719c-0.318,2.078,0.208,2.865,2.347,3.126C232.216,140.282,239.001,141.247,245.881,140.978z
		 M113.809,29.121c-0.279,0-0.561,0-0.84,0c0,4.117,0.084,8.237-0.041,12.35c-0.053,1.714,0.487,2.513,2.187,2.729
		c5.139,0.66,9.894-0.1,14.213-3.203c1.637-1.176,1.896-2.142,0.889-3.94c-4.018-7.168-7.881-14.422-11.793-21.647
		c-0.651-1.206-1.209-2.758-2.901-2.367c-1.618,0.373-1.724,1.912-1.718,3.352C113.818,20.636,113.809,24.878,113.809,29.121z"/>
	<path fill="#585858" d="M200.77,281.893c7.979,0.147,17.726,4.475,25.354,13.24c1.536,1.767,2.585,2.163,4.932,1.285
		c14.798-5.54,31.326,0.775,38.849,14.594c2.425,4.455,1.849,8.129-1.594,10.146c-3.425,2.008-6.994,0.624-9.506-3.686
		c-6.038-10.356-17.849-13.334-27.635-6.966c-5.52,3.592-8.422,2.852-11.758-3.003c-6.03-10.585-17.827-15.416-29.48-12.073
		c-11.398,3.271-19.019,14.038-18.383,26.033c0.153,2.884,0.945,5.624,1.905,8.352c1.452,4.125-0.109,7.782-3.615,8.981
		c-3.583,1.225-6.778-0.568-8.445-4.74C151.445,309.182,170.098,281.968,200.77,281.893z"/>
	<path fill="#585858" d="M238.217,204.794c4.474-0.123,7.357,2.111,7.606,5.894c0.267,4.055-2.195,6.472-7.013,6.886
		c-12.127,1.041-20.994,8.071-24.695,19.581c-1.535,4.772-4.637,6.856-8.503,5.715c-3.718-1.1-5.156-4.757-3.752-9.542
		C206.623,217.094,221.715,205.25,238.217,204.794z"/>
	<path fill="#585858" d="M92.398,279.896c0.725-13.388,10.051-25.479,23-29.824c3.657-1.229,7.026,0.13,8.422,3.391
		c1.396,3.262,0.117,6.876-3.462,8.313c-9.208,3.695-14.284,10.28-15.324,20.183c-0.431,4.106-3.579,6.456-7.147,5.954
		C94.199,287.395,92.154,284.406,92.398,279.896z"/>
	<path fill="#585858" d="M264.854,69.893c-0.188,9.754-2.987,18.655-8.51,26.686c-2.731,3.976-6.212,4.967-9.514,2.797
		c-3.236-2.127-3.761-5.919-1.119-9.839c5.264-7.813,6.989-16.386,5.938-25.646c-0.564-4.965,1.269-7.866,5.163-8.399
		c4.027-0.553,6.854,1.979,7.508,6.936C264.645,64.896,264.684,67.402,264.854,69.893z"/>
</g>
</svg>
