<?xml version="1.0" encoding="utf-8"?>
<!-- Generator: Adobe Illustrator 16.0.0, SVG Export Plug-In . SVG Version: 6.00 Build 0)  -->
<!DOCTYPE svg PUBLIC "-//W3C//DTD SVG 1.1//EN" "http://www.w3.org/Graphics/SVG/1.1/DTD/svg11.dtd">
<svg version="1.1" id="Layer_1" xmlns="http://www.w3.org/2000/svg" xmlns:xlink="http://www.w3.org/1999/xlink" x="0px" y="0px"
	 width="347.909px" height="383.954px" viewBox="0 0 347.909 383.954" enable-background="new 0 0 347.909 383.954"
	 xml:space="preserve">
<g>
	<path fill="#585858" d="M27.736,383.952c-0.365-1.236-1.563-1.096-2.432-1.359C9.926,377.919,0.127,365.02,0.053,348.886
		c-0.102-21.87-0.026-43.743-0.026-65.615c0-42.744-0.002-85.487,0.002-128.231c0.001-10.108,4.767-14.831,14.938-14.834
		c6.125-0.003,12.25-0.086,18.372,0.045c2.127,0.046,2.942-0.307,3.1-2.754c0.47-7.345,5.124-11.481,12.528-11.502
		c14.248-0.038,28.495-0.026,42.743-0.002c4.345,0.007,6.978,2.156,7.015,5.583c0.037,3.454-2.581,5.668-6.901,5.677
		c-13.498,0.029-26.997,0.083-40.493-0.048c-2.771-0.027-3.802,0.457-3.795,3.582c0.107,55.742,0.107,111.483-0.001,167.226
		c-0.006,3.021,1.021,3.373,3.604,3.347c12.247-0.123,24.496-0.031,36.744-0.07c3.029-0.008,5.484,0.902,6.521,3.938
		c1.334,3.907-1.398,7.286-5.961,7.311c-12.123,0.063-24.249,0.164-36.368-0.064c-3.512-0.065-4.809,0.648-4.553,4.412
		c0.364,5.351,0.117,10.742,0.085,16.115c-0.018,2.969,1.328,4.24,4.351,4.236c38.369-0.047,76.738-0.035,115.107-0.047
		c0.241,0,0.483-0.109,0.724-0.17c-0.711-10.854-11.533-21.941-23.553-23.812c-9.309-1.449-18.713-0.422-28.072-0.625
		c-6.026-0.131-8.785-1.854-8.663-5.766c0.118-3.744,2.878-5.513,8.615-5.513c6.124-0.002,12.255,0.181,18.37-0.039
		c12.961-0.461,24.336,3.191,33.719,12.515c0.957-1.209,0.482-2.486,0.484-3.64c0.037-22.372,0.055-44.744-0.004-67.115
		c-0.008-3.338,0.824-6.013,4.299-6.975c3.765-1.041,6.941,1.73,6.966,6.099c0.063,11.249,0.021,22.497,0.021,33.745
		c0.001,12.499,0,24.994,0,37.47c1.054,0.596,1.333-0.4,1.791-0.82c8.198-7.49,17.854-11.229,28.941-11.233
		c28.871-0.017,57.742-0.063,86.612,0.075c3.172,0.017,3.851-0.811,3.834-3.891c-0.138-24.621-0.08-49.243-0.068-73.864
		c0.001-1.495-0.039-3.022,0.238-4.479c0.538-2.825,2.422-4.311,5.272-4.364c2.843-0.055,4.8,1.331,5.454,4.139
		c0.309,1.318,0.304,2.728,0.305,4.095c0.015,36.244,0.021,72.488,0.006,108.734c-0.004,11.234-5.547,16.705-16.84,16.705
		c-80.862,0-161.727,0-242.588,0c-11.017,0-16.599-5.539-16.601-16.563c-0.012-62.116-0.039-124.232,0.083-186.347
		c0.007-3.511-0.985-4.326-4.292-4.165c-5.609,0.274-11.251,0.238-16.866,0.011c-3.101-0.126-4.039,0.821-4.025,3.975
		c0.113,29.371,0.065,58.741,0.065,88.112c0,34.495-0.005,68.989,0.003,103.483c0.002,16.027,9.635,25.732,25.563,25.734
		c91.361,0.008,182.723,0.006,274.084,0c16.029,0,25.697-9.631,25.699-25.6c0.007-63.741-0.03-127.481,0.087-191.223
		c0.007-3.73-1.143-4.669-4.664-4.495c-5.61,0.278-11.248,0.195-16.866,0.017c-2.326-0.074-2.9,0.594-2.886,2.894
		c0.104,16.122,0.055,32.245,0.054,48.367c0,1.125,0.055,2.256-0.035,3.373c-0.284,3.564-2.479,5.823-5.595,5.839
		c-3.128,0.015-5.445-2.23-5.6-5.788c-0.163-3.742-0.063-7.496-0.063-11.246c-0.003-17.997-0.078-35.996,0.073-53.991
		c0.023-3.006-0.849-3.686-3.731-3.653c-13.37,0.154-26.745,0.079-40.117,0.063c-4.669-0.005-7.33-2.076-7.339-5.62
		c-0.008-3.539,2.678-5.643,7.324-5.648c13.997-0.016,27.995-0.022,41.993,0.001c7.929,0.012,12.348,3.929,13.003,11.816
		c0.167,2.013,0.744,2.471,2.63,2.438c6.247-0.106,12.497-0.049,18.746-0.038c9.312,0.016,14.245,4.985,14.247,14.404
		c0.009,42.868,0.004,85.737,0.004,128.604c0,21.247,0.007,42.493-0.002,63.741c-0.008,19.275-10.069,31.945-28.863,36.412
		c-0.151,0.035-0.229,0.383-0.343,0.584C221.711,383.952,124.724,383.952,27.736,383.952z M239.961,347.206
		c18.746,0,37.493-0.057,56.239,0.051c3.572,0.021,4.981-1.354,4.907-4.856c-0.119-5.621-0.119-11.248,0.012-16.869
		c0.053-2.182-0.394-3.039-2.848-3.033c-29.494,0.094-58.989-0.043-88.482,0.119c-13.478,0.076-24.658,8.83-28.556,21.373
		c-0.885,2.848-0.233,3.283,2.488,3.268C202.468,347.161,221.214,347.206,239.961,347.206z"/>
	<path fill="#585858" d="M182.966,0c4.279,0.979,8.604,1.798,12.831,2.962c52.24,14.379,75.604,75.548,46.293,121.14
		c-11.671,18.153-23.353,36.299-35.081,54.413c-1.2,1.852-1.896,3.67-1.778,5.918c0.323,6.141-1.447,11.378-7.079,14.64
		c-1.413,0.818-1.208,2.009-1.236,3.228c-0.069,2.995,0.074,6.015-0.25,8.982c-0.988,9.039-7.869,15.579-16.883,16.068
		c-3.611,0.195-7.252,0.195-10.864,0.001c-9.003-0.485-15.867-7.063-16.926-16.049c-0.145-1.237-0.275-2.501-0.188-3.736
		c0.317-4.429,0.132-8.236-4.381-11.167c-3.484-2.264-4.188-6.707-3.938-10.825c0.185-3.048-0.778-5.492-2.402-7.992
		c-11.55-17.783-23-35.632-34.476-53.464c-4.76-7.398-8.207-15.375-10.376-23.896c-1.137-4.467,0.325-7.461,3.948-8.299
		c3.359-0.776,5.931,1.194,7.011,5.528c1.979,7.947,5.424,15.204,9.869,22.065c12.008,18.529,23.858,37.158,35.912,55.656
		c1.889,2.898,1.663,5.886,1.748,8.976c0.049,1.76-0.434,3.718,1.262,4.987c1.178-0.228,0.896-0.97,0.867-1.492
		c-1.056-18.835-2.156-37.669-3.16-56.508c-0.099-1.844-0.763-2.382-2.48-2.266c-1.615,0.11-3.252,0.091-4.87-0.008
		c-9.321-0.571-16.029-7.951-15.901-17.447c0.12-9.031,7.04-16.146,16.038-16.49c9.078-0.347,16.356,6.327,17.145,15.719
		c0.586,6.992,0.586,6.992,7.432,6.992c3.374,0,6.756-0.138,10.12,0.05c2.17,0.12,2.87-0.676,2.8-2.725
		c-0.048-1.363,0.217-2.737,0.329-4.105c0.778-9.478,7.885-16.165,16.941-15.945c8.97,0.218,16.061,7.328,16.251,16.294
		c0.202,9.534-6.388,16.913-15.687,17.689c-2.43,0.203-5.695-1.22-7.065,0.737c-1.218,1.738-0.539,4.809-0.687,7.292
		c-0.976,16.463-1.957,32.926-2.896,49.39c-0.061,1.052-0.522,2.191,0.273,3.262c2.367-0.31,2.765-2.118,2.489-3.853
		c-0.961-6.075,1.862-10.724,5.004-15.524c11.267-17.224,22.286-34.607,33.447-51.9c27.823-43.11,1.251-100.113-49.637-106.444
		c-37.994-4.727-72.583,22.367-77.095,60.389c-0.564,4.756-2.699,6.999-6.374,6.695c-3.451-0.285-5.324-2.779-4.908-6.992
		c1.617-16.377,7.848-30.866,18.49-43.354c13.327-15.64,30.259-24.925,50.633-27.85c0.585-0.083,1.277,0.081,1.487-0.741
		C170.968,0,176.967,0,182.966,0z M173.97,128.89c-1.747,0-3.532,0.231-5.233-0.047c-3.512-0.577-4.027,0.947-3.813,4.083
		c1.12,16.553,2.086,33.117,3,49.684c0.394,7.112,0.285,6.938,7.536,7.196c3.323,0.118,4.362-0.765,4.517-4.195
		c0.704-15.701,1.619-31.396,2.683-47.077C183.312,128.879,183.493,128.89,173.97,128.89z M174.559,200.973
		c-1.369,0-2.737,0-4.106,0c-7.953,0-7.953,0-7.383,7.996c0.343,4.807,2.755,7.081,7.694,7.185c2.362,0.049,4.729,0.047,7.092,0.001
		c5.104-0.101,7.516-2.423,7.755-7.5c0.088-1.861-0.063-3.736,0.047-5.597c0.099-1.639-0.533-2.168-2.142-2.113
		C180.534,201.045,177.545,200.973,174.559,200.973z M149.291,117.657c3.464,0.964,3.94-1.119,3.275-4.287
		c-0.204-0.97-0.106-2.006-0.326-2.97c-0.644-2.832-2.546-4.252-5.384-4.165c-2.865,0.088-4.618,1.732-5.104,4.538
		C141.02,115.021,143.7,117.601,149.291,117.657z M198.533,117.638c0.911,0,1.538,0.045,2.157-0.008
		c3.492-0.301,5.554-2.46,5.552-5.782c-0.003-3.241-2.143-5.559-5.208-5.642c-3.191-0.086-5.115,1.903-5.521,5.717
		c-0.066,0.62-0.05,1.256-0.185,1.86C194.67,116.735,195.314,118.475,198.533,117.638z"/>
	<path fill="#585858" d="M104.684,284.479c-9.854,0-19.708,0.02-29.563-0.009c-4.776-0.014-7.167-1.98-7.086-5.708
		c0.077-3.54,2.468-5.537,6.972-5.546c19.958-0.034,39.916-0.012,59.873-0.016c2.992-0.001,5.407,0.938,6.485,3.991
		c0.854,2.421-0.013,4.403-1.797,6.043c-1.402,1.286-3.19,1.245-4.947,1.244C124.642,284.478,114.663,284.479,104.684,284.479z"/>
	<path fill="#585858" d="M243.689,284.476c-9.854,0.004-19.709,0.021-29.563-0.006c-4.471-0.013-6.996-1.969-7.116-5.387
		c-0.125-3.54,2.571-5.857,7.102-5.867c19.834-0.032,39.667-0.015,59.5-0.014c0.499,0,1.002-0.017,1.495,0.039
		c3.558,0.401,5.629,2.591,5.538,5.831c-0.091,3.247-2.206,5.338-5.896,5.368C264.396,284.525,254.042,284.471,243.689,284.476z"/>
	<path fill="#585858" d="M104.588,229.612c-9.854,0-19.709,0.021-29.564-0.009c-4.6-0.016-6.901-1.859-6.983-5.447
		c-0.084-3.701,2.414-5.829,7.061-5.835c19.834-0.023,39.668-0.024,59.503,0.002c4.36,0.006,6.967,2.116,7.072,5.534
		c0.108,3.529-2.57,5.732-7.149,5.746C124.547,229.633,114.568,229.613,104.588,229.612z"/>
	<path fill="#585858" d="M244.089,229.612c-9.979,0.001-19.96,0.021-29.939-0.009c-4.556-0.014-7.255-2.235-7.144-5.752
		c0.108-3.422,2.709-5.522,7.075-5.528c19.835-0.026,39.67-0.026,59.505-0.002c4.651,0.006,7.146,2.137,7.055,5.842
		c-0.09,3.592-2.382,5.426-6.986,5.44C263.799,229.634,253.945,229.612,244.089,229.612z"/>
	<path fill="#585858" d="M104.928,245.871c9.979,0,19.959-0.021,29.938,0.011c4.264,0.015,6.898,2.272,6.813,5.695
		c-0.082,3.327-2.62,5.53-6.667,5.537c-20.083,0.033-40.167,0.03-60.251,0.003c-4.344-0.006-6.782-2.176-6.724-5.771
		c0.059-3.475,2.354-5.447,6.576-5.464C84.719,245.845,94.823,245.871,104.928,245.871z"/>
	<path fill="#585858" d="M243.707,245.87c9.98,0,19.961-0.017,29.94,0.008c4.604,0.011,6.903,1.83,6.995,5.42
		c0.094,3.702-2.41,5.819-7.047,5.824c-19.835,0.02-39.671,0.02-59.506-0.001c-4.382-0.004-6.969-2.063-7.081-5.496
		c-0.117-3.534,2.571-5.737,7.133-5.747C223.997,245.855,233.852,245.87,243.707,245.87z"/>
	<path fill="#585858" d="M90.691,200.974c-8.726,0-17.453,0.021-26.18-0.01c-4.241-0.015-6.846-2.29-6.739-5.764
		c0.102-3.331,2.611-5.456,6.686-5.462c17.827-0.028,35.654-0.031,53.481,0.003c4.026,0.007,6.518,2.228,6.533,5.592
		c0.016,3.381-2.47,5.608-6.48,5.627C108.893,201.003,99.792,200.974,90.691,200.974z"/>
	<path fill="#585858" d="M257.963,189.727c8.603,0,17.203-0.016,25.807,0.006c4.552,0.012,7.234,2.208,7.142,5.764
		c-0.089,3.435-2.659,5.468-7.039,5.472c-17.577,0.014-35.154,0.016-52.731-0.001c-4.381-0.004-6.896-2.062-6.928-5.555
		c-0.031-3.513,2.491-5.661,6.822-5.677C240.012,189.704,248.988,189.727,257.963,189.727z"/>
	<path fill="#585858" d="M272.725,66.825c1.93,0.046,3.309,0.836,4.552,1.928c3.743,3.284,7.532,6.518,11.209,9.875
		c2.888,2.636,3.216,5.679,1.099,8.224c-2.188,2.631-5.535,2.764-8.568,0.182c-3.885-3.308-7.692-6.708-11.514-10.091
		c-2.113-1.871-2.624-4.248-1.576-6.774C268.801,68.055,270.673,67.054,272.725,66.825z"/>
	<path fill="#585858" d="M81.208,71.913c0.082,2.476-0.836,4.017-2.317,5.31c-3.751,3.273-7.443,6.617-11.241,9.835
		c-3.039,2.576-6.387,2.418-8.571-0.228c-2.108-2.556-1.759-5.578,1.146-8.207c3.875-3.509,7.821-6.939,11.793-10.339
		c1.865-1.596,4.014-1.959,6.24-0.746C80.14,68.565,81.208,70.161,81.208,71.913z"/>
	<path fill="#585858" d="M63.735,20.818c1.556-0.096,2.867,0.82,4.105,1.909c3.642,3.207,7.325,6.368,10.918,9.628
		c2.926,2.656,3.298,6.077,1.076,8.527c-2.21,2.438-5.39,2.556-8.304,0.089c-3.987-3.376-7.908-6.834-11.767-10.357
		c-1.889-1.724-2.643-3.896-1.516-6.408C59.268,21.937,61.01,20.762,63.735,20.818z"/>
	<path fill="#585858" d="M273.539,42.766c-2.766-0.04-4.57-1.106-5.539-3.16c-1.024-2.176-0.926-4.528,0.908-6.222
		c4.293-3.965,8.638-7.894,13.189-11.552c2.264-1.819,4.973-1.54,7.109,0.589c2.13,2.12,2.613,4.894,0.602,7.063
		c-4.312,4.641-9.186,8.723-14.24,12.553C274.92,42.527,273.971,42.619,273.539,42.766z"/>
</g>
</svg>
