<?xml version="1.0" encoding="utf-8"?>
<!-- Generator: Adobe Illustrator 16.0.0, SVG Export Plug-In . SVG Version: 6.00 Build 0)  -->
<!DOCTYPE svg PUBLIC "-//W3C//DTD SVG 1.1//EN" "http://www.w3.org/Graphics/SVG/1.1/DTD/svg11.dtd">
<svg version="1.1" id="Layer_1" xmlns="http://www.w3.org/2000/svg" xmlns:xlink="http://www.w3.org/1999/xlink" x="0px" y="0px"
	 width="256px" height="256px" viewBox="0 0 256 256" enable-background="new 0 0 256 256" xml:space="preserve">
<g>
	<path fill="#999999" d="M0,128.002c0,52.414,31.518,97.441,76.619,117.239c-0.36-8.938-0.064-19.668,2.228-29.394
		c2.461-10.391,16.47-69.748,16.47-69.748s-4.089-8.173-4.089-20.251c0-18.969,10.994-33.136,24.686-33.136
		c11.643,0,17.268,8.745,17.268,19.217c0,11.704-7.465,29.211-11.304,45.426c-3.207,13.578,6.808,24.652,20.203,24.652
		c24.252,0,40.586-31.148,40.586-68.055c0-28.054-18.896-49.052-53.263-49.052c-38.827,0-63.016,28.956-63.016,61.3
		c0,11.152,3.288,19.016,8.438,25.105c2.368,2.797,2.697,3.922,1.84,7.135c-0.614,2.354-2.024,8.024-2.608,10.271
		c-0.852,3.242-3.479,4.401-6.409,3.204c-17.884-7.301-26.213-26.886-26.213-48.902c0-36.361,30.666-79.961,91.482-79.961
		c48.87,0,81.035,35.364,81.035,73.325c0,50.213-27.916,87.727-69.066,87.727c-13.818,0-26.818-7.471-31.271-15.955
		c0,0-7.431,29.492-9.005,35.187c-2.714,9.869-8.026,19.733-12.883,27.421c11.512,3.398,23.673,5.249,36.277,5.249
		c70.685,0,127.996-57.309,127.996-128.005C256.001,57.309,198.689,0,128.005,0C57.314,0,0,57.309,0,128.002z"/>
</g>
</svg>
