<?xml version="1.0" encoding="UTF-8"?>
<svg xmlns="http://www.w3.org/2000/svg" xmlns:xlink="http://www.w3.org/1999/xlink" width="512" height="512" viewBox="0 0 128 128"><defs><linearGradient id="a" x1="99.6" y1="106.591" x2="17.922" y2="24.912" gradientUnits="userSpaceOnUse"><stop offset="0" stop-color="#f67254"/><stop offset="1" stop-color="#ffcd70"/></linearGradient></defs><path d="M114.4,58.423V50.5a1.75,1.75,0,0,0-3.5,0v7.076a13.77,13.77,0,0,0-1.4-.071h-1.1V46.5A35.79,35.79,0,0,0,72.65,10.75H55.35a35.744,35.744,0,0,0-17.058,4.337,1.75,1.75,0,0,0,1.676,3.072A32.234,32.234,0,0,1,55.35,14.25h17.3A32.287,32.287,0,0,1,104.9,46.5V57.505h-1.092a1.749,1.749,0,0,0-1.75,1.75V60.51H100.81a4.755,4.755,0,0,0-4.75,4.75v18a4.755,4.755,0,0,0,4.75,4.75h1.248v1.245a1.749,1.749,0,0,0,1.75,1.75H109.5a13.765,13.765,0,0,0,13.75-13.75v-6A13.761,13.761,0,0,0,114.4,58.423ZM100.81,84.51a1.251,1.251,0,0,1-1.25-1.25v-18a1.25,1.25,0,0,1,1.25-1.25h1.248v20.5Zm18.94-7.255a10.261,10.261,0,0,1-10.25,10.25h-3.942v-26.5H109.5a10.261,10.261,0,0,1,10.25,10.25ZM80.9,37.776H47.1a4.756,4.756,0,0,0-4.75,4.75V73.5a1.75,1.75,0,0,0,3.5,0V42.526a1.251,1.251,0,0,1,1.25-1.25H80.9a1.251,1.251,0,0,1,1.25,1.25v58.282a1.251,1.251,0,0,1-1.25,1.25H47.1a1.251,1.251,0,0,1-1.25-1.25V88.66a1.75,1.75,0,0,0-3.5,0v12.148a4.756,4.756,0,0,0,4.75,4.75H59.25v4.252A1.75,1.75,0,0,0,61,111.56h1.033A10.168,10.168,0,0,1,52,119.75H29.75A10.261,10.261,0,0,1,19.5,109.5V97.01h1.25a1.749,1.749,0,0,0,1.75-1.75V91.005h1.692a1.749,1.749,0,0,0,1.75-1.75V88.01H27.19a4.755,4.755,0,0,0,4.75-4.75v-18a4.755,4.755,0,0,0-4.75-4.75H25.942V59.255a1.749,1.749,0,0,0-1.75-1.75H23.1V46.5A31.943,31.943,0,0,1,33.263,23.021a1.75,1.75,0,1,0-2.4-2.548A35.885,35.885,0,0,0,19.6,46.5V57.505H18.5a13.77,13.77,0,0,0-1.4.071V46.5A38.293,38.293,0,0,1,55.35,8.25h17.3a38.235,38.235,0,0,1,37.982,33.7,1.75,1.75,0,0,0,3.476-.412A41.736,41.736,0,0,0,72.65,4.75H55.35A41.8,41.8,0,0,0,13.6,46.5V58.423A13.761,13.761,0,0,0,4.75,71.255v6A13.765,13.765,0,0,0,13,89.849V95.26a1.749,1.749,0,0,0,1.75,1.75H16V109.5a13.765,13.765,0,0,0,13.75,13.75H52a13.642,13.642,0,0,0,13.582-11.69H67a1.75,1.75,0,0,0,1.75-1.75v-4.252H80.9a4.756,4.756,0,0,0,4.75-4.75V42.526A4.756,4.756,0,0,0,80.9,37.776ZM27.19,64.01a1.25,1.25,0,0,1,1.25,1.25v18a1.251,1.251,0,0,1-1.25,1.25H25.942V64.01ZM8.25,77.255v-6A10.261,10.261,0,0,1,18.5,61.005h3.942v26.5H18.5A10.261,10.261,0,0,1,8.25,77.255ZM18.5,91.005H19V93.51H16.5V90.843A13.742,13.742,0,0,0,18.5,91.005ZM65.25,108.06h-2.5v-2.5h2.5Zm-22.9-24.893V79.459a1.75,1.75,0,0,1,3.5,0v3.708a1.75,1.75,0,0,1-3.5,0ZM77.9,60.375a1.749,1.749,0,0,1-1.75-1.75v-5.25a1.75,1.75,0,0,1,3.5,0v5.25A1.749,1.749,0,0,1,77.9,60.375ZM68.75,94.808A4.75,4.75,0,1,0,64,99.558,4.755,4.755,0,0,0,68.75,94.808Zm-6,0A1.25,1.25,0,1,1,64,96.058,1.251,1.251,0,0,1,62.75,94.808Z" fill="url(#a)"/></svg>
