<?xml version="1.0" encoding="utf-8"?>
<!-- Generator: Adobe Illustrator 16.0.0, SVG Export Plug-In . SVG Version: 6.00 Build 0)  -->
<!DOCTYPE svg PUBLIC "-//W3C//DTD SVG 1.1//EN" "http://www.w3.org/Graphics/SVG/1.1/DTD/svg11.dtd">
<svg version="1.1"
	 id="svg2985" xmlns:inkscape="http://www.inkscape.org/namespaces/inkscape" xmlns:sodipodi="http://sodipodi.sourceforge.net/DTD/sodipodi-0.dtd" xmlns:rdf="http://www.w3.org/1999/02/22-rdf-syntax-ns#" xmlns:cc="http://creativecommons.org/ns#" xmlns:svg="http://www.w3.org/2000/svg" xmlns:dc="http://purl.org/dc/elements/1.1/" sodipodi:docname="Prezi_logo_transparent_2012.svg" inkscape:version="0.48.2 r9819"
	 xmlns="http://www.w3.org/2000/svg" xmlns:xlink="http://www.w3.org/1999/xlink" x="0px" y="0px" width="700.5px" height="700.5px"
	 viewBox="50.33 63.099 700.5 700.5" enable-background="new 50.33 63.099 700.5 700.5" xml:space="preserve">
<circle fill="#A3A3A3" cx="400.58" cy="413.349" r="350.25"/>
<sodipodi:namedview  id="namedview2987" fit-margin-left="2" showgrid="false" fit-margin-top="2" gridtolerance="10" objecttolerance="10" inkscape:cy="86.380123" inkscape:zoom="0.417193" inkscape:cx="248.06306" bordercolor="#666666" pagecolor="#ffffff" borderopacity="1" guidetolerance="10" fit-margin-bottom="2" fit-margin-right="2" inkscape:current-layer="svg2985" inkscape:window-maximized="1" inkscape:window-y="-8" inkscape:window-x="-8" inkscape:window-height="706" inkscape:window-width="1366" inkscape:pageshadow="2" inkscape:pageopacity="0">
	</sodipodi:namedview>
<g id="g3216">
	<g id="g5003" transform="matrix(1.209863,0,0,1.209863,127.98294,49.400268)">
		<path id="path3854" sodipodi:nodetypes="ssssssssss" inkscape:connector-curvature="0" fill="#E0E0E0" d="M142.88,223.188
			c-0.591,44.902,37.698,82.363,82.495,82.363c44.796,0,81.475-37.457,81.475-82.363c0-44.906-36.667-81.281-81.475-81.281
			C166.059,141.906,143.311,190.407,142.88,223.188L142.88,223.188z M225.375,150.719c39.931,0,71.262,32.44,71.262,72.469
			c0,40.029-31.331,71.799-71.262,71.799c-39.931,0-72.282-31.771-72.282-71.799C153.093,183.159,185.444,150.719,225.375,150.719z"
			/>
		<path id="path3857" sodipodi:nodetypes="szszssssss" inkscape:connector-curvature="0" fill="#E0E0E0" d="M122.792,223.184
			c0,58.078,48.56,101.451,102.579,101.451c54.02,0,101.215-44.642,101.215-101.451s-47.602-101.942-101.215-101.942
			C171.758,121.242,122.792,162.636,122.792,223.184L122.792,223.184z M225.371,130.446c46.306,0,91.48,39.801,91.48,92.739
			c0,53.291-40.965,91.718-91.48,91.718c-52.813,0-91.971-40.548-91.971-91.718C133.4,170.07,174.856,130.446,225.371,130.446
			L225.371,130.446z"/>
		<path id="path3859" sodipodi:nodetypes="szszssssss" inkscape:connector-curvature="0" fill="#E0E0E0" d="M102.924,223.235
			c0,70.063,57.313,121.686,122.479,121.686s121.749-53.154,121.749-121.686c0-68.532-56.674-122.235-121.749-122.235
			C160.327,101,102.924,150.827,102.924,223.235L102.924,223.235z M225.404,111.098c58.958,0,111.456,48.276,111.456,112.137
			c0,64.287-51.918,111.943-112.857,111.943c-60.56,0-111.549-50.215-111.549-111.943
			C112.454,159.161,164.464,111.098,225.404,111.098L225.404,111.098z"/>
	</g>
	<g id="g5008" transform="matrix(1.209863,0,0,1.209863,127.98294,49.400268)">
		<path id="path3819" inkscape:connector-curvature="0" fill="#E0E0E0" d="M219.026,164.157h12.905v117.733h-12.905V164.157z"/>
		<path id="path3821" sodipodi:nodetypes="ccccc" inkscape:connector-curvature="0" fill="#E0E0E0" d="M192.089,173.407
			c5.181-4.118,12.905-6.133,12.905-6.133v111.17c-7.319-1.745-12.816-5.982-12.816-5.982L192.089,173.407z"/>
		<path id="path3834" sodipodi:nodetypes="ccccc" inkscape:connector-curvature="0" fill="#E0E0E0" d="M259.025,173.157
			c-5.18-4.118-12.904-6.133-12.904-6.133v111.169c7.319-1.745,12.816-5.982,12.816-5.982L259.025,173.157z"/>
		<path id="path3836" sodipodi:nodetypes="ccsc" inkscape:connector-curvature="0" fill="#E0E0E0" d="M177.875,186.875V258.5
			c0,0-11.875-11.625-11.875-35.625S177.875,186.875,177.875,186.875z"/>
		<path id="path3838" sodipodi:nodetypes="ccsc" inkscape:connector-curvature="0" fill="#E0E0E0" d="M272.265,186.375V258
			c0,0,11.875-11.625,11.875-35.625C284.14,198.375,272.265,186.375,272.265,186.375z"/>
	</g>
	<g id="g3386" transform="matrix(1.2082628,-0.06220601,0.06220601,1.2082628,114.47815,63.765565)">
		
			<path id="path4983" inkscape:transform-center-x="-76.646795" inkscape:transform-center-y="-170.68128" sodipodi:nodetypes="ccccc" inkscape:connector-curvature="0" fill="#E0E0E0" d="
			M291.947,105.716l18.717-31.78l-15.442-8.441l-15.325,33.82L291.947,105.716z"/>
		
			<path id="path3039" inkscape:transform-center-x="-39.570879" inkscape:transform-center-y="-182.47866" sodipodi:nodetypes="ccccc" inkscape:connector-curvature="0" fill="#E0E0E0" d="
			M265.922,94.294l11.671-34.987l-16.863-5.032l-7.929,36.274L265.922,94.294z"/>
		
			<path id="path3041" inkscape:transform-center-x="-0.58421047" inkscape:transform-center-y="-186.24389" sodipodi:nodetypes="ccccc" inkscape:connector-curvature="0" fill="#E0E0E0" d="
			M238.651,88.611l4.266-36.634l-17.536-1.475l-0.34,37.129L238.651,88.611z"/>
		
			<path id="path3043" inkscape:transform-center-x="39.859278" inkscape:transform-center-y="-182.25816" sodipodi:nodetypes="ccccc" inkscape:connector-curvature="0" fill="#E0E0E0" d="
			M210.117,88.701l-3.505-36.715l-17.456,2.232l7.448,36.376L210.117,88.701z"/>
		
			<path id="path3045" inkscape:transform-center-x="77.005702" inkscape:transform-center-y="-170.39675" sodipodi:nodetypes="ccccc" inkscape:connector-curvature="0" fill="#E0E0E0" d="
			M182.302,94.745L171.2,59.573l-16.604,5.831l14.886,34.016L182.302,94.745z"/>
		
			<path id="path3047" inkscape:transform-center-x="110.70331" inkscape:transform-center-y="-151.0419" sodipodi:nodetypes="ccccc" inkscape:connector-curvature="0" fill="#E0E0E0" d="
			M156.401,106.448l-18.197-32.08l-15.021,9.168l21.658,30.16L156.401,106.448z"/>
		
			<path id="path3049" inkscape:transform-center-x="139.00542" inkscape:transform-center-y="-125.61212" sodipodi:nodetypes="ccccc" inkscape:connector-curvature="0" fill="#E0E0E0" d="
			M133.935,122.916l-24.376-27.679l-12.827,12.048l27.371,25.091L133.935,122.916z"/>
		
			<path id="path3051" inkscape:transform-center-x="161.89263" inkscape:transform-center-y="-94.059486" sodipodi:nodetypes="ccccc" inkscape:connector-curvature="0" fill="#E0E0E0" d="
			M114.913,144.186L85.278,122.23L75.26,136.697l32.02,18.798L114.913,144.186z"/>
		
			<path id="path3053" inkscape:transform-center-x="177.33293" inkscape:transform-center-y="-59.140913" sodipodi:nodetypes="ccccc" inkscape:connector-curvature="0" fill="#E0E0E0" d="
			M101.02,168.401l-33.507-15.413l-6.839,16.215l35.194,11.833L101.02,168.401z"/>
		
			<path id="path3055" inkscape:transform-center-x="185.30865" inkscape:transform-center-y="-21.016554" sodipodi:nodetypes="ccccc" inkscape:connector-curvature="0" fill="#E0E0E0" d="
			M92.282,195.446l-35.986-8.081l-3.304,17.285l36.889,4.227L92.282,195.446z"/>
		
			<path id="path3057" inkscape:transform-center-x="185.27175" inkscape:transform-center-y="19.648468" sodipodi:nodetypes="ccccc" inkscape:connector-curvature="0" fill="#E0E0E0" d="
			M89.381,223.151l-36.878-0.547l0.302,17.596l36.974-3.41L89.381,223.151z"/>
		
			<path id="path3059" inkscape:transform-center-x="177.54339" inkscape:transform-center-y="58.019379" sodipodi:nodetypes="ccccc" inkscape:connector-curvature="0" fill="#E0E0E0" d="
			M92.351,251.531l-36.174,7.193l3.982,17.141l35.439-11.081L92.351,251.531z"/>
		
			<path id="path3061" inkscape:transform-center-x="161.98088" inkscape:transform-center-y="93.729523" sodipodi:nodetypes="ccccc" inkscape:connector-curvature="0" fill="#E0E0E0" d="
			M101.172,278.594L67.3,293.189l7.478,15.93l32.339-18.244L101.172,278.594z"/>
		
			<path id="path3063" inkscape:transform-center-x="139.30133" inkscape:transform-center-y="125.25579" sodipodi:nodetypes="ccccc" inkscape:connector-curvature="0" fill="#E0E0E0" d="
			M115.429,303.181l-30.08,21.342l10.638,14.019l27.82-24.592L115.429,303.181z"/>
		
			<path id="path3065" inkscape:transform-center-x="111.11416" inkscape:transform-center-y="150.80729" sodipodi:nodetypes="ccccc" inkscape:connector-curvature="0" fill="#E0E0E0" d="
			M134.081,323.87l-25.076,27.046l13.281,11.546l22.2-29.763L134.081,323.87z"/>
		
			<path id="path3067" inkscape:transform-center-x="77.373572" inkscape:transform-center-y="170.35992" sodipodi:nodetypes="ccccc" inkscape:connector-curvature="0" fill="#E0E0E0" d="
			M157.162,340.648l-18.852,31.699l15.405,8.507l15.471-33.754L157.162,340.648z"/>
		
			<path id="path3069" inkscape:transform-center-x="40.006302" inkscape:transform-center-y="182.38886" sodipodi:nodetypes="ccccc" inkscape:connector-curvature="0" fill="#E0E0E0" d="
			M183.383,352.261l-11.756,34.959l16.851,5.072l8.016-36.255L183.383,352.261z"/>
		
			<path id="path3071" inkscape:transform-center-x="0.20776088" inkscape:transform-center-y="186.24205" sodipodi:nodetypes="ccccc" inkscape:connector-curvature="0" fill="#E0E0E0" d="
			M211.205,358.067l-4.2,36.643l17.539,1.444l0.273-37.13L211.205,358.067z"/>
		
			<path id="path3073" inkscape:transform-center-x="-39.270245" inkscape:transform-center-y="182.37853" sodipodi:nodetypes="ccccc" inkscape:connector-curvature="0" fill="#E0E0E0" d="
			M239.061,358l3.385,36.727l17.463-2.175l-7.33-36.4L239.061,358z"/>
		
			<path id="path3075" inkscape:transform-center-x="-76.546011" inkscape:transform-center-y="170.59865" sodipodi:nodetypes="ccccc" inkscape:connector-curvature="0" fill="#E0E0E0" d="
			M266.963,352.024l11.006,35.201l16.619-5.786l-14.794-34.056L266.963,352.024z"/>
		
			<path id="path3077" inkscape:transform-center-x="-110.34421" inkscape:transform-center-y="151.30178" sodipodi:nodetypes="ccccc" inkscape:connector-curvature="0" fill="#E0E0E0" d="
			M292.932,340.369l18.12,32.124l15.044-9.133l-21.586-30.211L292.932,340.369z"/>
		
			<path id="path3079" inkscape:transform-center-x="-139.22899" inkscape:transform-center-y="125.36406" sodipodi:nodetypes="ccccc" inkscape:connector-curvature="0" fill="#E0E0E0" d="
			M315.86,323.573l24.426,27.634l12.806-12.071l-27.416-25.041L315.86,323.573z"/>
		
			<path id="path3081" inkscape:transform-center-x="-161.59377" inkscape:transform-center-y="94.57863" sodipodi:nodetypes="ccccc" inkscape:connector-curvature="0" fill="#E0E0E0" d="
			M334.444,302.823l29.563,22.051l10.065-14.435l-31.959-18.902L334.444,302.823z"/>
		
			<path id="path3083" inkscape:transform-center-x="-177.40972" inkscape:transform-center-y="58.902433" sodipodi:nodetypes="ccccc" inkscape:connector-curvature="0" fill="#E0E0E0" d="
			M348.667,278.085l33.528,15.368l6.817-16.224l-35.211-11.786L348.667,278.085z"/>
		
			<path id="path3089" inkscape:transform-center-x="-185.36108" inkscape:transform-center-y="20.489335" sodipodi:nodetypes="ccccc" inkscape:connector-curvature="0" fill="#E0E0E0" d="
			M357.41,250.83l36.008,7.978l3.255-17.294l-36.901-4.122L357.41,250.83z"/>
		
			<path id="path3091" inkscape:transform-center-x="-185.12979" inkscape:transform-center-y="-21.1097" sodipodi:nodetypes="ccccc" inkscape:connector-curvature="0" fill="#E0E0E0" d="
			M360.229,222.434l36.881,0.256l-0.442-17.593l-36.945,3.701L360.229,222.434z"/>
		
			<path id="path3093" inkscape:transform-center-x="-177.12835" inkscape:transform-center-y="-59.321377" sodipodi:nodetypes="ccccc" inkscape:connector-curvature="0" fill="#E0E0E0" d="
			M357.051,194.148l36.12-7.459l-4.108-17.111l-35.356,11.342L357.051,194.148z"/>
		
			<path id="path3095" inkscape:transform-center-x="-161.33109" inkscape:transform-center-y="-94.862158" sodipodi:nodetypes="ccccc" inkscape:connector-curvature="0" fill="#E0E0E0" d="
			M348.049,167.19l33.768-14.833l-7.59-15.877l-32.21,18.471L348.049,167.19z"/>
		
			<path id="path3097" inkscape:transform-center-x="-138.94905" inkscape:transform-center-y="-125.64826" sodipodi:nodetypes="ccccc" inkscape:connector-curvature="0" fill="#E0E0E0" d="
			M333.956,143.161l30.019-21.428l-10.678-13.988l-27.75,24.671L333.956,143.161z"/>
		
			<path id="path3099" inkscape:transform-center-x="-109.93261" inkscape:transform-center-y="-151.66526" sodipodi:nodetypes="ccccc" inkscape:connector-curvature="0" fill="#E0E0E0" d="
			M314.736,122.071l24.862-27.243l-13.371-11.44l-21.965,29.937L314.736,122.071z"/>
	</g>
</g>
<g id="text3418">
	<g id="g3271">
		<path id="path3261" fill="#E0E0E0" d="M252.296,587.65v98.26h19.321v-29.151h5.897c5.021,0,9.878-0.846,14.573-2.539
			c4.694-1.692,8.897-4.094,12.609-7.204s6.605-6.794,8.682-11.052c2.075-4.259,3.113-8.845,3.113-13.759
			c0-4.911-1.038-9.496-3.113-13.754c-2.076-4.258-4.97-7.943-8.682-11.055c-3.712-3.112-7.915-5.515-12.609-7.207
			c-4.695-1.692-9.552-2.539-14.573-2.539H252.296z M277.514,606.977c5.131,0,9.634,1.393,13.509,4.176
			c3.875,2.784,5.812,6.468,5.812,11.053c0,4.588-1.938,8.273-5.812,11.057c-3.875,2.784-8.378,4.176-13.509,4.176h-5.897v-30.461
			H277.514z"/>
		<path id="path3263" inkscape:connector-curvature="0" fill="#E0E0E0" d="M373.636,627.612l-3.603-19.491
			c-2.623,0-5.271,0.547-7.944,1.64s-5.157,2.403-7.451,3.931s-4.096,2.837-5.405,3.928c-1.31,1.092-2.237,1.855-2.784,2.292
			c-0.109-0.217-0.492-0.789-1.146-1.717c-0.655-0.928-1.527-2.048-2.619-3.358c-1.091-1.312-2.128-2.513-3.11-3.604
			c-0.983-1.091-1.858-1.91-2.624-2.456l-15.718,9.335c4.258,3.275,7.396,6.905,9.415,10.891c2.02,3.984,3.029,8.652,3.029,14.003
			v42.905h18.671v-44.38c0.437-0.546,1.256-1.474,2.457-2.783c1.2-1.31,2.783-2.838,4.747-4.585
			c1.964-1.748,4.202-3.276,6.715-4.586C368.776,628.267,371.233,627.612,373.636,627.612L373.636,627.612z"/>
		<path id="path3265" sodipodi:nodetypes="ccscsccsssssssccccssccccccssccscc" inkscape:connector-curvature="0" fill="#E0E0E0" d="
			M401.768,658.563c0.979,0,1.907,0,2.784,0c19.65,0,41.478-10.624,40.313-27.023c-0.67-9.432-3.522-12.582-8.463-16.827
			c-5.241-4.095-13.915-6.357-19.938-6.401c-4.914-0.036-9.951,1.623-14.154,3.752c-4.203,2.13-7.908,4.58-10.965,8.402
			c-3.057,3.821-5.629,7.937-7.267,12.794s-2.456,9.853-2.456,14.983s0.818,10.126,2.456,14.985s3.957,9.172,6.96,12.938
			c3.001,3.767,6.604,6.742,10.807,8.926c4.203,2.185,8.817,3.276,13.842,3.276c3.928,0,7.585-0.655,10.97-1.967
			c3.385-1.311,6.224-2.839,8.516-4.585c2.293-1.746,4.039-3.274,5.24-4.586c1.201-1.311,2.021-2.239,2.457-2.786l-10.48-10.479
			c-0.873,1.093-2.701,2.431-5.485,4.013c-2.783,1.583-6.522,2.374-11.217,2.374c-2.402,0-4.45-0.464-6.143-1.392
			s-3.084-2.074-4.176-3.438c-1.091-1.364-1.854-2.565-2.291-3.604S402.204,659.763,401.768,658.563L401.768,658.563z
			 M415.462,624.516c3.274,0,5.744,0.028,8.907,1.959c1.964,1.256,3.836,3.313,3.706,5.59c-0.307,5.354-8.785,8.851-15.037,10.046
			c-4.34,0.829-5.942,1.155-12.929,1.155c0.109-0.763,0.205-1.167,0.587-2.859s1.315-4.08,2.354-6.264
			c1.038-2.185,2.566-4.122,4.586-5.815C409.654,626.635,412.513,624.516,415.462,624.516L415.462,624.516z"/>
		<path id="path3267" fill="#E0E0E0" d="M455.287,610.58v18.342h28.656l-30.296,56.988h59.607v-18.342h-30.296l30.296-56.988
			H455.287z"/>
		<path id="path3269" fill="#E0E0E0" d="M538.504,575.696c-3.169,0-5.845,1.092-8.026,3.276c-2.183,2.184-3.273,4.858-3.273,8.023
			s1.091,5.84,3.273,8.023c2.182,2.185,4.857,3.276,8.026,3.276c3.165,0,5.84-1.092,8.023-3.276
			c2.184-2.184,3.275-4.858,3.276-8.023c0-3.165-1.093-5.84-3.276-8.023C544.344,576.788,541.669,575.696,538.504,575.696z
			 M547.999,610.58h-18.996v75.33h18.996V610.58z"/>
	</g>
</g>
</svg>
