<?xml version="1.0" encoding="utf-8"?>
<!-- Generator: Adobe Illustrator 16.0.0, SVG Export Plug-In . SVG Version: 6.00 Build 0)  -->
<!DOCTYPE svg PUBLIC "-//W3C//DTD SVG 1.1//EN" "http://www.w3.org/Graphics/SVG/1.1/DTD/svg11.dtd">
<svg version="1.1" id="Layer_1" xmlns="http://www.w3.org/2000/svg" xmlns:xlink="http://www.w3.org/1999/xlink" x="0px" y="0px"
	 width="383.952px" height="383.948px" viewBox="0 0 383.952 383.948" enable-background="new 0 0 383.952 383.948"
	 xml:space="preserve">
<g>
	<path fill="#585858" d="M0,197.974c0-4,0-7.999,0-11.999c1.326-0.671,1.088-2.104,1.512-3.194
		c4.386-11.297,12.591-18.005,24.614-18.995c11.723-0.966,21.891,3.703,26.521,14.428c3.363,7.79,7.834,9.1,14.783,8.183
		c0.491-0.064,1.012-0.084,1.496,0.004c2.96,0.539,3.997-0.535,4.241-3.666c2.042-26.216,11.813-49.258,29.06-69.091
		c1.51-1.736,0.99-2.542-0.354-3.872c-8.709-8.608-17.405-17.229-25.949-25.999c-1.772-1.82-2.859-1.699-4.905-0.458
		c-17.986,10.904-41.48,3.91-50.695-14.967c-9.198-18.84-0.241-41.71,19.315-49.279c1.156-0.447,2.351-0.897,3.564-1.072
		c3.101-0.444,5.461,0.676,6.382,3.814c0.901,3.077-0.272,5.382-3.153,6.744c-1.234,0.583-2.578,0.928-3.829,1.479
		c-11.779,5.184-17.612,18.882-13.209,30.979c4.408,12.111,17.604,18.833,30.031,15.298c12.379-3.521,19.941-16.268,17.203-28.922
		c-1.357-6.267-4.697-11.195-9.84-14.952c-2.066-1.51-3.32-3.433-2.764-6.076c0.479-2.26,1.951-3.741,4.176-4.371
		c2.307-0.654,4.081,0.513,5.837,1.791c14.838,10.801,18.863,31.339,9.127,47.483c-1.21,2.006-1.057,3.008,0.558,4.587
		c8.565,8.393,17.071,16.854,25.444,25.44c1.938,1.986,3.021,2.204,5.279,0.271c19.119-16.368,41.219-25.884,66.334-28.258
		c5.562-0.526,5.559-0.548,5.559-6.209c0-2.499-0.172-5.013,0.048-7.492c0.225-2.555-0.627-3.565-3.189-4.385
		c-11.771-3.767-19.633-14.762-19.615-26.852c0.021-12.194,7.748-22.799,19.563-26.951c0.975-0.342,2.303-0.133,2.833-1.415
		c3.499,0,6.999,0,10.499,0c0.238,0.234,0.446,0.627,0.721,0.68c12.313,2.407,20.727,11.124,22.761,23.619
		c1.843,11.309-3.458,24.08-14.222,28.387c-8.001,3.202-9.016,7.895-8.13,14.801c0.063,0.491,0.089,1.013-0.005,1.495
		c-0.589,3.045,0.686,3.95,3.717,4.19c26.205,2.072,49.232,11.854,69.05,29.099c1.814,1.579,2.603,0.81,3.862-0.462
		c8.442-8.516,16.862-17.058,25.476-25.398c2.073-2.009,2.271-3.247,0.733-5.787c-7.539-12.462-6.495-27.983,2.337-39.701
		c8.584-11.388,23.299-16.763,36.905-13.203c14.642,3.832,23.958,13.319,26.837,28.077c2.922,14.978-2.289,27.533-14.818,36.217
		c-12.536,8.688-25.905,8.791-39.09,1.084c-2.157-1.261-3.082-0.799-4.566,0.705c-8.507,8.628-17.042,17.23-25.719,25.686
		c-1.887,1.839-1.734,2.822-0.103,4.728c16.466,19.212,26.047,41.4,28.424,66.646c0.521,5.527,0.546,5.525,6.244,5.525
		c2.748,0,5.503-0.115,8.243,0.037c1.972,0.108,2.754-0.605,3.372-2.517c4.097-12.668,15.224-20.712,27.811-20.313
		c12.827,0.407,23.302,8.867,26.826,21.679c0.153,0.563-0.033,1.286,0.811,1.45c0,3.75,0,7.499,0,11.249
		c-1.338,0.661-1.099,2.094-1.522,3.187c-4.449,11.446-12.781,18.149-24.978,19.021c-11.579,0.829-21.628-3.869-26.147-14.445
		c-3.367-7.881-7.927-9.002-14.843-8.09c-0.489,0.064-1.014,0.088-1.494-0.005c-3.036-0.586-3.961,0.673-4.201,3.708
		c-2.062,26.078-11.791,49.009-28.887,68.772c-1.613,1.866-1.187,2.685,0.307,4.154c8.538,8.42,17.065,16.855,25.391,25.485
		c2.061,2.136,3.365,2.102,5.813,0.649c9.57-5.674,19.737-6.495,30.225-2.766c3.599,1.28,5.172,4.138,4.183,7.224
		c-0.983,3.068-3.994,4.429-7.589,3.417c-0.6-0.169-1.176-0.42-1.776-0.577c-9.485-2.484-17.903-0.49-24.734,6.57
		c-6.717,6.942-8.658,15.331-5.778,24.565c3.962,12.701,17.355,19.848,30.054,16.262c13.022-3.677,20.521-16.817,17.227-30.188
		c-1.169-4.742-0.02-7.634,3.384-8.512c3.713-0.958,6.162,0.976,7.483,5.816c1.578,5.785,1.73,11.603,0.193,17.39
		c-3.887,14.626-13.284,23.989-28.041,26.895c-14.973,2.947-27.541-2.247-36.25-14.758c-8.715-12.52-8.831-25.885-1.155-39.097
		c1.195-2.059,0.975-3.019-0.606-4.571c-8.557-8.399-17.063-16.854-25.423-25.451c-1.977-2.032-3.065-2.104-5.277-0.218
		c-19.038,16.245-41.007,25.766-65.979,28.179c-5.909,0.569-5.91,0.558-5.91,6.651c0,2.373,0.174,4.765-0.047,7.116
		c-0.242,2.57,0.646,3.566,3.203,4.369c11.313,3.555,19.016,13.912,19.573,25.736c0.531,11.297-6.195,22.206-16.767,26.974
		c-2.28,1.028-4.729,1.683-7.103,2.51c-3.5,0-7,0-10.499,0c-0.663-1.334-2.098-1.102-3.188-1.524
		c-11.299-4.387-18.014-12.586-19.005-24.614c-0.967-11.73,3.714-21.926,14.442-26.515c7.893-3.376,8.928-7.966,8.119-14.831
		c-0.059-0.493-0.088-1.016,0.006-1.497c0.592-3.047-0.689-3.958-3.717-4.197c-26.086-2.061-49.025-11.785-68.799-28.889
		c-1.843-1.596-2.666-1.229-4.156,0.285c-8.418,8.548-16.861,17.075-25.492,25.404c-2.131,2.058-2.035,3.323-0.654,5.812
		c7.504,13.518,6.759,26.832-2.229,39.385c-8.313,11.604-23.228,17.021-36.787,13.536c-14.642-3.766-24.092-13.166-27.049-27.92
		c-3.031-15.117,2.196-27.809,14.901-36.546c12.576-8.65,25.945-8.616,39.141-0.938c1.701,0.99,2.568,1.138,4.004-0.32
		c8.764-8.906,17.591-17.753,26.496-26.519c1.511-1.487,1.483-2.338,0.099-3.885c-5.26-5.874-9.762-12.312-13.684-19.158
		c-8.949-15.626-14.043-32.433-15.347-50.369c-0.172-2.378-0.881-3.211-3.308-3.047c-3.235,0.218-6.51,0.243-9.74-0.004
		c-2.806-0.216-4.024,0.616-4.952,3.477c-3.743,11.556-14.75,19.315-26.699,19.298c-12.188-0.018-22.928-7.841-26.965-19.564
		C1.077,199.831,1.283,198.504,0,197.974z M192.228,83.992c-59.516-0.113-108.08,48.183-108.234,107.632
		c-0.153,59.52,48.084,108.114,107.539,108.334c59.664,0.221,108.356-48.202,108.428-107.827
		C300.029,132.611,251.704,84.105,192.228,83.992z M306.715,52.556c-0.011,13.519,10.963,24.601,24.437,24.68
		c13.665,0.079,24.899-11.022,24.922-24.625c0.022-13.542-11.346-24.844-24.876-24.733
		C317.712,27.988,306.726,39.063,306.715,52.556z M52.651,306.713c-13.658-0.021-24.852,11.167-24.774,24.763
		c0.075,13.427,11.211,24.54,24.641,24.595c13.574,0.055,24.764-11.184,24.721-24.829C77.194,317.751,66.153,306.736,52.651,306.713
		z M209.113,28.335c-0.01-9.382-7.822-17.124-17.237-17.081c-9.399,0.043-17.16,7.912-17.036,17.275
		c0.123,9.237,7.801,16.87,17.042,16.942C201.201,45.545,209.122,37.668,209.113,28.335z M11.259,191.804
		c-0.073,9.429,7.615,17.254,17.01,17.313c9.317,0.059,17.217-7.829,17.196-17.169c-0.021-9.227-7.632-16.949-16.866-17.113
		C19.241,174.669,11.333,182.411,11.259,191.804z M372.69,191.902c-0.031-9.392-7.895-17.173-17.249-17.068
		c-9.237,0.104-16.862,7.756-16.959,17.019c-0.098,9.329,7.748,17.251,17.097,17.265
		C364.943,209.128,372.723,201.303,372.69,191.902z M191.907,372.692c9.4,0.03,17.222-7.75,17.206-17.119
		c-0.015-9.345-7.944-17.201-17.264-17.1c-9.257,0.1-16.915,7.739-17.012,16.97C174.739,364.811,182.508,372.662,191.907,372.692z"
		/>
	<path fill="#585858" d="M162.217,186.212c-21.086-22.179-15.177-49.604-0.104-63.702c16.814-15.729,42.595-15.802,59.467-0.253
		c15.081,13.896,21.474,41.474,0.312,63.813c4.049,0.722,8.009,0.34,11.847,1.291c15.461,3.831,26.822,17.235,27.287,33.063
		c0.337,11.486,0.171,22.99,0.127,34.486c-0.017,4.242-1.987,6.21-6.2,6.225c-16.369,0.055-32.74,0.047-49.111,0.005
		c-3.897-0.01-6.244-2.107-6.345-5.376c-0.104-3.391,2.329-5.693,6.375-5.841c2.995-0.109,6.021-0.261,8.99,0.038
		c2.986,0.301,3.652-0.893,3.37-3.559c-0.21-1.977-0.121-3.999-0.008-5.992c0.183-3.23,2.449-5.51,5.411-5.603
		c2.922-0.093,5.384,2.146,5.774,5.288c0.076,0.616,0.03,1.248,0.037,1.873c0.095,7.926,0.095,7.926,8.23,7.926
		c3.374,0,6.751-0.072,10.122,0.031c1.617,0.05,2.165-0.446,2.146-2.107c-0.112-9.371,0.179-18.757-0.25-28.109
		c-0.499-10.887-9.986-20.51-20.815-21.767c-1.732-0.202-3.489-0.274-5.235-0.275c-21.119-0.02-42.238-0.031-63.356-0.007
		c-15.984,0.021-26.173,10.197-26.241,26.186c-0.034,7.748,0.097,15.498-0.067,23.242c-0.051,2.391,0.691,2.936,2.947,2.859
		c4.992-0.168,9.998-0.167,14.992,0c2.209,0.074,2.771-0.705,2.627-2.75c-0.156-2.237-0.136-4.503,0.003-6.744
		c0.21-3.398,2.708-5.753,5.784-5.645c2.963,0.104,5.168,2.382,5.414,5.619c0.048,0.622,0.018,1.25,0.021,1.875
		c0.041,7.592,0.041,7.587,7.84,7.596c1.873,0.002,3.767-0.113,5.615,0.11c3.26,0.393,5.339,2.809,5.235,5.778
		c-0.104,2.991-2.323,5.306-5.622,5.318c-16.871,0.071-33.741,0.074-50.611-0.008c-3.396-0.018-5.377-2.075-5.384-5.465
		c-0.025-12.495-0.413-25.019,0.267-37.479c0.865-15.883,15.336-30.033,31.187-31.479
		C156.766,186.454,159.255,186.382,162.217,186.212z M192.038,186.287c17.764-0.048,32.162-14.442,32.176-32.165
		c0.014-17.726-14.342-32.128-32.118-32.225c-17.864-0.098-32.416,14.453-32.356,32.354
		C159.8,171.95,174.302,186.335,192.038,186.287z"/>
</g>
</svg>
