<?xml version="1.0" encoding="utf-8"?>
<!-- Generator: Adobe Illustrator 16.0.0, SVG Export Plug-In . SVG Version: 6.00 Build 0)  -->
<!DOCTYPE svg PUBLIC "-//W3C//DTD SVG 1.1//EN" "http://www.w3.org/Graphics/SVG/1.1/DTD/svg11.dtd">
<svg version="1.1" id="Capa_1" xmlns="http://www.w3.org/2000/svg" xmlns:xlink="http://www.w3.org/1999/xlink" x="0px" y="0px"
	 width="35px" height="35px" viewBox="0 0 35 35" enable-background="new 0 0 35 35" xml:space="preserve">
<g>
	<path fill="#FFFFFF" d="M26.998,15.014c-0.176-0.177-0.37-0.327-0.572-0.457L12.86,0.993c-1.324-1.323-3.47-1.324-4.794,0
		c-1.324,1.323-1.324,3.47,0,4.794L19.75,17.47L8.007,29.214c-1.325,1.323-1.325,3.47,0,4.794C8.669,34.669,9.536,35,10.403,35
		c0.867,0,1.736-0.331,2.396-0.993l13.626-13.624c0.202-0.131,0.396-0.279,0.572-0.457c0.678-0.678,1.004-1.568,0.988-2.456
		C28.002,16.582,27.676,15.69,26.998,15.014z"/>
</g>
</svg>
