<?xml version="1.0" encoding="utf-8"?>
<!-- Generator: Adobe Illustrator 16.0.0, SVG Export Plug-In . SVG Version: 6.00 Build 0)  -->
<!DOCTYPE svg PUBLIC "-//W3C//DTD SVG 1.1//EN" "http://www.w3.org/Graphics/SVG/1.1/DTD/svg11.dtd">
<svg version="1.1" id="Layer_1" xmlns="http://www.w3.org/2000/svg" xmlns:xlink="http://www.w3.org/1999/xlink" x="0px" y="0px"
	 width="200px" height="200px" viewBox="0 0 200 200" enable-background="new 0 0 200 200" xml:space="preserve">
<g>
	<path fill="#939598" d="M128.312,169.299c0.096-4.304-3.706-6.301-4.31-4.001c-0.591,2.299-2.288,2.395-2.689-0.303
		c-0.407-2.694-1.712-0.298-1.712-0.298c-1.591,2.598-2.913-1.306-2.695-4.104c0.206-2.786-0.902-6.294,0.704-5.595
		c1.599,0.711,0.591-3.934,0.591-3.934c-1.785-3.235,0.305-4.861,0.703-4.763c0.4,0.097,1.889,0.302,1.889-0.79
		c0-0.428-0.08-0.776-0.22-1.045c0,0.021,0,0.035,0,0.051c-1.147-1.291-2.503-1.026-4.14-1.231
		c-5.792-2.854-11.692-6.111-18.976-4.744c-0.408,0.325-1.147,0.267-1.212,0.948c2.646,1.354,5.699,1.631,7.81,4.068v0.478
		c-2.376,0.139-5.581-0.341-8.025,0.347c-1.092-0.347-1.572,0.673-2.585,0.406c-2.094,0.815-4.421,1.769-6.249,3.668
		c-0.191,0.135-0.337,0.408-0.62,0.476c0.353-0.677,0.832-1.427,0.62-2.246c-1.625-1.631-3.671-2.646-5.165-4.484
		c-1.833-0.755-3.739,1.426-5.235,0c-0.203-1.079,0-2.379-1.092-2.922c-4.069,0.062-6.853,3.389-10.063,5.707
		c-0.546,0.132-1.008-0.131-1.224-0.603c0-0.689-0.333-1.298-0.803-1.848c-2.455,0.482-3.882,3.199-5.163,5.163
		c-0.77,1.641-1.573,3.209-2.115,4.909h-0.202l0.744-7.818c-1.543-0.584-2.849-2.137-4.743-1.601l0.022,0.091
		c0.508-0.055,0.849-0.091,0.891-0.081l-7.298,0.133l-1.583,2.161l0.799,29.551l9.467,2.082c0.064-1.013,1.215-1.491,1.902-1.969
		c0.881-1.971-0.066-6.174-0.066-8.271c-0.47-6.121-0.343-12.38,3.671-16.73c1.557-0.065,1.356,1.983,2.506,2.584
		c2.451-1.775,3.402-4.824,6.249-6.254c2.324-0.813,2.594,2.105,3.548,3.263c0.813,0.754,1.554-0.206,2.443-0.067
		c0.686,0.21,0.805,0.883,0.881,1.43c-0.318,5.709-0.959,12.029,1.229,16.997c1.43,3.05,3.454,5.762,5.03,8.702
		c-0.402,0.876-1.709,0.473-2.445,0.401c-1.156-0.133-2.32-1.084-3.538-0.401c0.403,3.666,4.355,5.844,5.983,8.967
		c-1.216,1.632-3.809,0.267-5.303,1.556c0.07,2.387,3.126,3.609,3.809,5.852c-1.145,1.159-3.118,0.545-4.489,0.279
		c-1.236-0.205-2.928-1.167-3.95-0.14c0.206,2.452,2.321,4.08,3.397,6.12c0.35,0.14,0.553-0.139,0.763-0.211
		c0.338-0.477,15.574,0.144,17.258-2.439c-0.058-1.84-2.297-2.179-3.392-3.197c-0.614-0.675-1.842-1.013-1.786-2.109
		c0.356-0.203,0.556-0.608,0.89-0.746c1.367-0.939,3.955-0.337,4.288-2.446c-1.296-1.153-2.858-1.771-4.288-2.657
		c-0.664-0.742-2.371-1.355-1.981-2.577c1.091-0.274,1.981-0.956,3.208-0.893c1.1-0.266,2.589-0.266,3.061-1.287
		c-1.216-1.696-3.326-2.178-4.885-3.467c-0.893-1.018-2.524-1.563-2.585-3.055c2.18-1.231,4.206,0.407,6.515-0.489
		c0.268-0.332,1.222-0.2,0.955-0.938c-3.126-2.381-6.736-4.823-8.084-8.564c0-0.82-0.541-1.699,0-2.444
		c2.241,1.771,4.408,3.735,7.343,3.735c0.338-0.135,1.007-0.204,0.741-0.819c-1.022-1.292-2.176-2.577-2.921-4.073
		c-0.667-2.319-0.536-5.245,1.357-6.944c1.361-1.288,2.999-1.834,4.633-2.444c1.687-0.412,3.062,0.347,4.554-0.266
		c-0.282-1.022-1.492-1.57-2.388-1.973c-4.347-1.438-9.043,0.2-12.295,3.193l-0.139-0.142c0.745-3.396,4.484-5.302,7.332-6.454
		c1.985,0,3.882-0.947,6.126-0.617c0.818,0.485,1.842,0.078,2.581,0.617c0.75-0.271,1.026,0.545,1.698,0.342
		c3.333,0.743,5.58,4.011,9.049,4.275c2.987,2.59,2.78,6.735,2.711,10.674l-0.266,0.283c-0.138,2.708-1.434,5.292-2.714,7.674
		c-0.687,1.297-1.782,2.517-1.705,3.947c2.85,0,4.754-2.306,7.202-3.205c0.34,0.281,0.474,0.555,0.399,0.953
		c-1.137,3.811-3.938,6.871-6.522,10.063v0.818c1.364,0.207,2.993,0.341,4.228-0.214c0.81,0.285,1.759-0.67,2.295,0.341
		c-0.732,2.809-3.529,4.704-5.293,7.008c-0.136,2.993,4.084,0.273,5.293,2.317c-0.399,2.032-2.499,3.401-3.529,5.168
		c1.152,0,2.435-0.674,3.409,0.202c0.12,0.68-0.15,1.558-0.766,1.973c-0.051,0.614,0.615,0.614,0.886,1.086
		c3.739,0.269,16.865,0.546,17.615-0.209c0.881-1.829-1.429-2.516-2.168-3.599c-0.486-0.888,0.404-1.707,0.062-2.516
		c-0.818,0.14-1.967,0.682-2.777,0c-0.755-2.177-4.018-2.105-4.018-4.687c0.885-1.771,2.103-3.333,2.649-5.245
		c0.074-0.605,0.613-1.419-0.144-1.84c-0.74,0.087-1.966-0.125-2.638,0.624c-0.633,0.071-1.71,0.479-2.108-0.41
		c0.871-3.336,2.849-6.184,3.806-9.512c-0.008-0.143-0.005-0.269,0.007-0.397C128.432,171.796,128.249,171.41,128.312,169.299z
		 M77.688,161.031c-0.474-1.558-0.751-3.603-0.284-5.229c0.212-1.432,2.384-2.111,2.794-0.414c0.261,3.534,0.948,7.008,1.366,10.271
		C79.219,165.321,78.577,162.727,77.688,161.031z M94.2,149.892c0.258,0.132,0.547,0.328,0.946,0.265
		c-0.399,0.874-1.633,1.221-2.44,1.831l-1.245,0.956c0.167-0.48-0.196-1.097-0.735-1.362c-0.336,0-0.806,0.143-1.091-0.062
		C91.014,150.622,92.496,149.957,94.2,149.892z M124.78,169.596c-0.201,0.08-0.392-0.071-0.542,0.131
		c-0.743-1.285,0.478-2.373,0.278-3.662c0.824-0.881,1.841,0.404,1.959,1.23C126.561,168.305,125.398,168.984,124.78,169.596z"/>
	<g>
		<path fill="#FFFFFF" d="M45.542,148.17c-4.87,4.097-10.742,6.159-17.598,6.159c-10.839,0-16.245,1.729-16.245,5.195
			c0,1.874,0.485,3.179,1.404,3.903c1.162,0.939,3.213,1.411,6.189,1.411h19.169c12.832,0,19.237,4.406,19.237,13.23
			c0,6.778-3.088,11.81-9.295,15.063l-3.245-4.439c2.942-1.951,4.422-4.221,4.422-6.819c0-5.833-5.564-8.458-16.719-7.847
			c-11.133,0.609-17.814,0.527-19.969-0.269c-6.287-1.222-9.416-4.8-9.416-10.715c0-5.989,4.086-9.84,12.236-11.568v-0.223
			c-3.476-1.374-6.206-3.964-8.217-7.794c-1.752-3.387-2.613-7.133-2.613-11.237c0-6.144,2.531-11.384,7.592-15.703
			c4.82-4.12,10.394-6.158,16.662-6.158c6.637,0,12.235,2.187,16.814,6.576c4.6,4.399,6.886,9.486,6.886,15.244
			C52.838,138.736,50.402,144.053,45.542,148.17z M37.692,119.906c-2.419-3.244-5.383-4.866-8.927-4.866
			c-3.452,0-6.392,1.622-8.798,4.866c-2.429,3.243-3.64,7.506-3.64,12.769c0,5.189,1.21,9.41,3.64,12.657
			c2.407,3.252,5.346,4.868,8.798,4.868c3.543,0,6.507-1.616,8.927-4.868c2.417-3.247,3.615-7.468,3.615-12.657
			C41.307,127.412,40.109,123.149,37.692,119.906z"/>
		<path fill="#FFFFFF" d="M171.773,166.608c-2.92,0-4.499-2.198-4.499-4.726v-26.956c0-7.01-0.997-14.955-12.833-18.126
			c-10.927-2.925-22.315,0.655-22.315,0.655s0.676-3.127,0.523-4.621l0.041-14.231c-0.054-3.106-0.383-6.139-1.308-8.951
			c-2.024-6.338-8.197-12.54-18.108-12.54c-14.211,0-18.462,11.525-18.462,11.525s-4.701-11.525-17.495-11.524
			c-14.264,0-18.331,11.11-18.331,11.11v-9.447H46.231v54.865h8.54c1.852,0,2.446-0.337,3.404-1.086
			c0.939-3.337,1.487-7.341,0.537-10.818c2.114-12.771-3.877-31.214,10.273-37.177c4.275-1.782,8.907-0.408,11.955,2.72
			c1.091,1.013,1.771,2.17,2.298,3.392c1.786,5.239,0.349,10.941,0.771,16.528c-1.558,3.401,1.758,7.269-1.227,10.256
			c-0.073,2.116,2.855,4.154,0.397,6.052c-2.112,1.975-4.41,3.326-7.127,3.731c-0.682,0.963-1.368,2.183-0.763,3.346
			c0.763,0.608,1.847,0.659,2.398,1.557c0.204,0.549-0.474,1.012,0.05,1.362c4.714-1.568,9.67-2.364,14.697-3.073
			c1.22-1.076,4.012-1.889,3.319-3.802c-0.816-1.006-2.845-1.616-2.442-3.121c0.747-1.695,3.599-2.993,2.32-5.035
			c-0.819-0.875-1.363-2.032-0.961-3.325c3.267-2.646-0.744-6.181,1.083-9.313c0.758-2.04-0.324-4.009,0-6.185
			c-0.122-5.239,1.499-9.987,5.862-13.114c3.927-2.798,9.984-3.412,14.338-1.095c6.456,3.534,4.556,11.017,4.882,17.329
			c-0.59,3.604,0.819,7.344-0.735,10.678c0.548,2.383,1.628,5.374-0.816,7.198c-0.489,2.591,2.312,4.288,1.289,6.594
			c-0.881,0.61-2.316,0.693-2.778,1.84c0,1.036,0.333,1.902,1.09,2.585c1.828-1.632,4.335,0.14,6.379,0.606
			c1.698,0.691,3.543,1.774,5.383,1.369c1.214-0.949,2.571-1.912,4.272-1.369c1.083,0.42,2.172,0.753,3.338,1.09
			c0.749-1.425,0.606-3.245,0.051-4.755c-1.895,0.474-4.011-0.54-5.09-2.18c-0.256-1.211-1.091-2.854-0.256-3.933
			c3.04-2.187,7.118-0.207,10.66-1.36c4.765,0.202,10.266,0.883,11.964,6.056c0.953,3.04,0.269,6.724,0.128,9.986
			c-2.846,1.838-6.46,0.135-9.515,1.014c-1.148,0.824-2.311,2.124-3.938,1.427c-1.367-0.335-2.52-1.287-4.146-0.949
			c-1.703,0.824-1.232,4.003-3.661,3.265c-1.72-0.691-3.139-2.107-5.174-2.032c-1.5,1.341-0.078,3.941-1.219,5.501h-1.101
			c-1.961-1.225-3.742-2.991-6.126-3.334c-0.466,0.47-0.59,1.221-0.326,1.832c0.203,0.133,0.069,0.381,0.063,0.569
			c0.14,0.269,0.22,0.617,0.22,1.045c0,1.092-1.488,0.887-1.889,0.79c-0.398-0.099-2.488,1.527-0.703,4.763
			c0,0,1.008,4.645-0.591,3.934c-1.606-0.699-0.498,2.809-0.704,5.595c-0.218,2.799,1.104,6.702,2.695,4.104
			c0,0,1.305-2.396,1.712,0.298c0.401,2.697,2.099,2.602,2.689,0.303c0.604-2.3,4.405-0.303,4.31,4.001
			c-0.063,2.111,0.12,2.497,0.501,2.354c0.18-2.217,2.907-2.558,4.148-4.228c2.985-0.681,1.681,3.467,3.922,4.014
			c1.979-0.61,3.345-2.997,5.237-4.014c1.965-0.615,2.054,2.442,3.95,2.302c3.334-1.152,4.409-6.859,8.758-5.632
			c0.68-0.28,1.231-0.954,1.839-1.228c0.588,2.308,0.37,5.247-0.062,7.817h17.4v-4.076H171.773z M128.806,158.321
			c-1.361-0.074-2.182-1.374-2.799-2.456c-0.809-1.693-0.533-3.813-0.744-5.709c0.944-1.018,1.698,0.809,2.449,1.425
			c0.809,1.774,1.969,3.4,2.178,5.439C129.746,157.563,129.343,158.036,128.806,158.321z M154.828,156.004
			c-1.345,0.878-2.932,1.963-3.863,3.47c-1.153,1.635-2.056,4.892-4.695,4.481c-1.023-0.61-1.775-2.38-3.12-1.833
			c-1.85,0.878-2.661,3.738-4.894,3.199c-1.697-1.032-1.844-4.365-4.412-3.541c-0.557,0.285-1.171,0.551-1.718,0.194
			c-1.224-2.029-2.38-4.615-1.356-7.198c1.017-2.991,0-6.803,0.81-9.92c0.28-0.682,1.297-0.547,1.785-0.214
			c1.489,0.68,2.923,2.931,4.609,1.701c1.159-1.146,1.222-4.615,3.942-3.257c1.16,0.608,2.512,1.296,4.021,0.949
			c2.37-3.942,6.65-0.069,9.917-1.971C156.06,146.626,157.216,152.053,154.828,156.004z"/>
	</g>
	<path fill="#00AEEF" d="M196.752,1.667c-0.061-0.761-0.184-1.127-0.476-1.17c-0.307-0.048-0.507,0.189-0.917,1.038l-44.961,93.927
		c-0.413,0.867-0.47,1.161-0.233,1.379c0.217,0.191,0.566,0.063,1.197-0.365c4.146-2.86,23.161-16.401,35.372-41.351
		C198.495,29.973,197.13,6.692,196.752,1.667z"/>
</g>
</svg>
