<?xml version="1.0" encoding="utf-8"?>
<!-- Generator: Adobe Illustrator 16.0.0, SVG Export Plug-In . SVG Version: 6.00 Build 0)  -->
<!DOCTYPE svg PUBLIC "-//W3C//DTD SVG 1.1//EN" "http://www.w3.org/Graphics/SVG/1.1/DTD/svg11.dtd">
<svg version="1.1" id="Layer_1" xmlns="http://www.w3.org/2000/svg" xmlns:xlink="http://www.w3.org/1999/xlink" x="0px" y="0px"
	 width="131.446px" height="75.684px" viewBox="0 0 131.446 75.684" enable-background="new 0 0 131.446 75.684"
	 xml:space="preserve">
<g>
	<polygon fill="#4D4D4D" points="66.407,17.26 65.722,17.94 65.722,19.441 66.407,20.122 74.108,20.122 74.794,19.441 74.794,17.94 
		74.108,17.26 	"/>
	<rect x="72.361" y="7.135" fill="#4D4D4D" width="2.46" height="1.992"/>
	<polygon fill="#4D4D4D" points="41.294,5.09 40.609,5.772 40.609,7.273 41.294,7.955 48.998,7.955 49.683,7.273 49.683,5.772 
		48.998,5.09 	"/>
	<path fill="#4D4D4D" d="M60.41,0v0.887h-7.744L51.777,0H3.542v15.435L0,19.941v4.805l2.434,0.482l63.511,12.616l30.647-12.616V0
		H60.41z M18.7,22.574h-2.6v-9.617h-1.438v9.617h-2.656v-0.887H9.435L7.526,19.26l-1.91,2.428h-2.96v-0.441l3.542-4.506V2.656h2.655
		V16.74l3.153,4.012V2.656h2.656v7.756H16.1V2.656h2.6V22.574z M35.63,22.352H21.245v-2.545h5.865v-3.87h-5.422v-7.8h10.844V5.423
		H21.688V2.877h13.499v7.804H24.344v2.711h10.843v2.545h-5.422v3.87h5.865V22.352z M52.224,22.463H38.282l0.003-6.311h2.656v3.766
		h11.283V22.463z M52.338,14.603h-5.422v3.321h-2.655v-3.321h-6.308v-2.545h14.385V14.603z M52.338,8.299L50.126,10.5h-9.961
		l-2.212-2.201V4.748l2.212-2.202h9.961l2.212,2.202V8.299z M63.069,10.839h5.173l1.491-1.492V5.423h-6.664V2.877h9.292v0.002V2.877
		v1.768h2.46V2.656h2.629v10.842h-2.629v-1.881h-3.679l-1.769,1.767h-6.305V10.839z M77.45,20.467l-2.211,2.201h-9.962l-2.211-2.201
		v-3.551l2.211-2.201h9.962l2.211,2.201V20.467z M88.847,18.049l-3.639,3.639h-5.213v-2.545h4.08l2.117-2.115V5.423h-6.197V2.877
		h8.852V18.049z M93.937,22.574H91.28V2.656h2.656V22.574z"/>
	<polygon fill="#4D4D4D" points="115.979,67.715 115.294,68.397 115.294,69.897 115.979,70.579 123.462,70.579 124.146,69.897 
		124.146,68.397 123.462,67.715 	"/>
	<polygon fill="#4D4D4D" points="41.295,67.715 40.61,68.397 40.61,69.897 41.295,70.579 48.998,70.579 49.683,69.897 
		49.683,68.397 48.998,67.715 	"/>
	<polygon fill="#4D4D4D" points="78.21,62.842 78.896,62.161 78.896,60.438 78.21,59.758 75.155,59.758 74.47,60.438 74.47,62.161 
		75.155,62.842 	"/>
	<path fill="#4D4D4D" d="M35.298,72.465l3.234,3.219h13.229l1.85-1.84l1.851,1.84h33.182v-0.885h12.205v0.885h25.375l3.232-3.217
		v-9.953h1.99v-7.855h-1.99v-4.203l-63.51-12.613L35.298,50.456V72.465z M126.802,70.922l-2.213,2.201h-9.74l-2.211-2.201v-3.551
		l2.211-2.201h9.74l2.213,2.201V70.922z M124.144,53.112h2.656v4.201h1.992v2.547H126.8v4.094h-2.656V53.112z M112.19,63.506
		l4.205-5.35v-5.045h2.656v5.045l4.205,5.35v0.443h-2.959l-2.574-3.273l-2.574,3.273h-2.959V63.506z M107.599,53.112h2.6V73.03h-2.6
		V53.112z M94.153,71.704l3.543-4.508V53.112h2.654l0.002,7.314h3.152v-7.314h2.654V73.03h-2.654v-0.887h-2.57l-1.91-2.428
		l-1.91,2.428h-2.961V71.704z M69.268,70.922l-2.211,2.201h-9.961l-2.212-2.201v-3.551l2.212-2.201h9.961l2.211,2.201V70.922z
		 M85.989,73.03H72.048l0.002-6.426h2.656v3.881h11.283V73.03z M83.112,53.112h2.654v4.865h1.992v2.545h-1.992v7.193h-2.654V53.112z
		 M71.818,53.774h3.54v-1.326h2.656v1.326h3.541v2.545h-9.737V53.774z M71.814,59.415l2.21-2.201h5.316l2.211,2.201v3.771
		l-2.211,2.201h-5.316l-2.21-2.201V59.415z M66.613,57.424v-4.313h2.656v10.842h-2.656v-3.984h-2.882v-2.545H66.613z M54.222,63.506
		l4.205-5.35v-2.281h-3.54v-2.545h9.735v2.545h-3.54v2.281l4.205,5.35v0.443h-2.958l-2.575-3.273L57.18,63.95h-2.958V63.506z
		 M52.338,70.922l-2.212,2.201h-9.962l-2.211-2.201v-3.551l2.211-2.201h9.962l2.212,2.201V70.922z M37.954,61.063h4.315v-3.32h2.656
		v3.32h3.853l0.572-2.309V55.75H38.064v-2.545h13.941v5.535l-0.576,2.322h0.909v2.545H37.954V61.063z"/>
	<polygon fill="#4D4D4D" points="103.505,71.208 103.505,62.971 100.353,62.971 100.353,67.196 	"/>
	<polygon fill="#4D4D4D" points="58.225,67.715 57.539,68.397 57.539,69.897 58.225,70.579 65.928,70.579 66.613,69.897 
		66.613,68.397 65.928,67.715 	"/>
</g>
</svg>
