<?xml version="1.0" encoding="utf-8"?>
<!-- Generator: Adobe Illustrator 16.0.0, SVG Export Plug-In . SVG Version: 6.00 Build 0)  -->
<!DOCTYPE svg PUBLIC "-//W3C//DTD SVG 1.1//EN" "http://www.w3.org/Graphics/SVG/1.1/DTD/svg11.dtd">
<svg version="1.1" id="Layer_1" xmlns="http://www.w3.org/2000/svg" xmlns:xlink="http://www.w3.org/1999/xlink" x="0px" y="0px"
	 width="146.948px" height="63.597px" viewBox="0 0 146.948 63.597" enable-background="new 0 0 146.948 63.597"
	 xml:space="preserve">
<g>
	<g>
		<polygon fill="#B3B3B3" points="64.677,42.625 63.905,41.144 63.235,41.144 64.356,43.236 63.565,44.75 64.228,44.75 
			66.038,41.144 65.384,41.144 		"/>
		<path fill="#B3B3B3" d="M68.024,43.267c-0.369,0-0.621-0.27-0.652-0.691h1.805v-0.158c0-0.815-0.459-1.342-1.188-1.342
			c-0.746,0-1.223,0.533-1.223,1.377c0,0.8,0.5,1.346,1.234,1.346c0.537,0,0.895-0.228,1.201-0.752l-0.492-0.281
			C68.476,43.152,68.317,43.267,68.024,43.267z M67.989,41.615c0.299,0,0.512,0.173,0.592,0.478h-1.174
			C67.479,41.797,67.706,41.615,67.989,41.615z"/>
		<path fill="#B3B3B3" d="M79.495,41.44c-0.203-0.234-0.48-0.364-0.791-0.364c-0.684,0-1.18,0.583-1.18,1.382
			c0,0.772,0.496,1.341,1.174,1.341c0.316,0,0.559-0.109,0.797-0.365v0.358c0,0.539-0.209,0.804-0.639,0.804
			c-0.236,0-0.463-0.118-0.564-0.301c-0.059-0.104-0.078-0.2-0.096-0.422h-0.57c0.008,0.77,0.475,1.252,1.223,1.252
			c0.432,0,0.801-0.176,1.014-0.494c0.166-0.246,0.213-0.47,0.213-0.973v-2.514h-0.58V41.44z M78.819,43.267
			c-0.426,0-0.701-0.326-0.701-0.824c0-0.504,0.275-0.834,0.693-0.834s0.707,0.338,0.707,0.819
			C79.519,42.931,79.237,43.267,78.819,43.267z"/>
		<path fill="#B3B3B3" d="M83.577,42.177h0.994c-0.053,0.574-0.592,1.039-1.195,1.039c-0.789,0-1.447-0.695-1.447-1.525
			c0-0.869,0.648-1.544,1.48-1.544c0.494,0,0.865,0.202,1.211,0.667l0.42-0.419c-0.484-0.577-0.979-0.831-1.613-0.831
			c-1.18,0-2.105,0.932-2.105,2.127c0,1.16,0.916,2.107,2.039,2.107c0.6,0,1.17-0.288,1.506-0.771
			c0.246-0.342,0.355-0.708,0.355-1.24v-0.19h-1.645V42.177z"/>
		<path fill="#B3B3B3" d="M60.722,42.177h0.994c-0.053,0.574-0.59,1.039-1.197,1.039c-0.789,0-1.439-0.695-1.439-1.525
			c0-0.869,0.643-1.544,1.471-1.544c0.506,0,0.869,0.202,1.211,0.667l0.432-0.419c-0.494-0.577-0.98-0.831-1.627-0.831
			c-1.174,0-2.105,0.932-2.105,2.127c0,1.16,0.926,2.107,2.039,2.107c0.611,0,1.176-0.288,1.52-0.771
			c0.244-0.342,0.352-0.708,0.352-1.24v-0.19h-1.648V42.177z"/>
		<path fill="#B3B3B3" d="M90.364,41.671c0,1.198,0.914,2.127,2.084,2.127c0.369,0,0.723-0.098,1.07-0.305v-0.742
			c-0.381,0.334-0.688,0.465-1.059,0.465c-0.846,0-1.486-0.659-1.486-1.525c0-0.863,0.643-1.544,1.459-1.544
			c0.402,0,0.711,0.13,1.086,0.442v-0.723c-0.369-0.221-0.645-0.303-1.07-0.303C91.321,39.564,90.364,40.527,90.364,41.671z"/>
		<rect x="111.794" y="39.452" fill="#B3B3B3" width="0.588" height="4.269"/>
		<rect x="98.054" y="39.452" fill="#B3B3B3" width="0.586" height="4.269"/>
		<polygon fill="#B3B3B3" points="137.661,40.12 137.081,40.12 137.081,41.144 136.78,41.144 136.78,41.699 137.081,41.699 
			137.081,43.72 137.661,43.72 137.661,41.699 138.167,41.699 138.167,41.144 137.661,41.144 		"/>
		<polygon fill="#B3B3B3" points="100.64,40.12 100.056,40.12 100.056,41.144 99.759,41.144 99.759,41.699 100.056,41.699 
			100.056,43.72 100.64,43.72 100.64,41.699 101.146,41.699 101.146,41.144 100.64,41.144 		"/>
		<path fill="#B3B3B3" d="M106.134,41.377v-0.233h-0.588v2.576h0.588v-1.335c0-0.507,0.148-0.739,0.473-0.739
			c0.123,0,0.193,0.029,0.322,0.129l0.266-0.546c-0.193-0.123-0.301-0.159-0.479-0.159C106.487,41.07,106.349,41.144,106.134,41.377
			z"/>
		<polygon fill="#B3B3B3" points="115.812,43.72 116.419,43.72 116.419,41.767 117.761,41.767 117.761,41.185 116.419,41.185 
			116.419,40.187 117.808,40.187 117.808,39.605 115.812,39.605 		"/>
		<path fill="#B3B3B3" d="M124.038,42.625c0,0.441-0.15,0.643-0.486,0.643c-0.34,0-0.496-0.201-0.496-0.643v-1.48h-0.58v1.494
			c0,0.402,0.072,0.623,0.26,0.834c0.203,0.217,0.484,0.326,0.816,0.326c0.328,0,0.598-0.109,0.799-0.326
			c0.191-0.211,0.264-0.432,0.264-0.834v-1.494h-0.576V42.625z"/>
		<path fill="#B3B3B3" d="M103.685,42.625c0,0.441-0.16,0.643-0.498,0.643c-0.332,0-0.486-0.201-0.486-0.643v-1.48h-0.586v1.494
			c0,0.402,0.074,0.623,0.266,0.834c0.203,0.217,0.48,0.326,0.807,0.326c0.336,0,0.611-0.109,0.816-0.326
			c0.189-0.211,0.264-0.432,0.264-0.834v-1.494h-0.582V42.625z"/>
		<path fill="#B3B3B3" d="M96.175,42.625c0,0.441-0.156,0.643-0.498,0.643c-0.332,0-0.486-0.201-0.486-0.643v-1.48h-0.58v1.494
			c0,0.402,0.068,0.623,0.26,0.834c0.203,0.217,0.479,0.326,0.807,0.326c0.336,0,0.613-0.109,0.816-0.326
			c0.191-0.211,0.266-0.432,0.266-0.834v-1.494h-0.584V42.625z"/>
		<path fill="#B3B3B3" d="M131.319,41.444c-0.25-0.263-0.48-0.368-0.791-0.368c-0.674,0-1.188,0.576-1.188,1.342
			c0,0.799,0.502,1.381,1.195,1.381c0.303,0,0.533-0.105,0.783-0.348v0.27h0.578v-4.269h-0.578V41.444z M130.628,43.267
			c-0.406,0-0.697-0.349-0.697-0.834c0-0.478,0.291-0.824,0.697-0.824c0.43,0,0.729,0.338,0.729,0.824
			C131.356,42.931,131.058,43.267,130.628,43.267z"/>
		<path fill="#B3B3B3" d="M135.05,41.444c-0.258-0.263-0.471-0.368-0.787-0.368c-0.666,0-1.18,0.576-1.18,1.342
			c0,0.805,0.5,1.381,1.188,1.381c0.309,0,0.506-0.091,0.779-0.348v0.27h0.578v-2.576h-0.578V41.444z M134.362,43.267
			c-0.404,0-0.695-0.349-0.695-0.834c0-0.478,0.297-0.824,0.695-0.824c0.426,0,0.725,0.342,0.725,0.824
			C135.087,42.931,134.788,43.267,134.362,43.267z"/>
		<path fill="#B3B3B3" d="M109.88,41.444c-0.256-0.263-0.471-0.368-0.789-0.368c-0.672,0-1.188,0.576-1.188,1.342
			c0,0.805,0.504,1.381,1.199,1.381c0.307,0,0.504-0.091,0.777-0.348v0.27h0.584v-2.576h-0.584V41.444z M109.19,43.267
			c-0.402,0-0.691-0.349-0.691-0.834c0-0.478,0.299-0.824,0.691-0.824c0.43,0,0.725,0.342,0.725,0.824
			C109.915,42.931,109.62,43.267,109.19,43.267z"/>
		<path fill="#B3B3B3" d="M139.505,39.734c-0.215,0-0.381,0.172-0.381,0.386c0,0.216,0.17,0.385,0.373,0.385
			c0.211,0,0.385-0.169,0.385-0.385C139.882,39.906,139.716,39.734,139.505,39.734z"/>
		<rect x="139.212" y="41.144" fill="#B3B3B3" width="0.578" height="2.576"/>
		<path fill="#B3B3B3" d="M86.761,39.734c-0.215,0-0.381,0.172-0.381,0.386c0,0.216,0.172,0.385,0.373,0.385
			c0.213,0,0.385-0.169,0.385-0.385C87.138,39.906,86.972,39.734,86.761,39.734z"/>
		<rect x="86.468" y="41.144" fill="#B3B3B3" width="0.578" height="2.576"/>
		<path fill="#B3B3B3" d="M142.271,41.076c-0.762,0-1.346,0.596-1.346,1.367c0,0.758,0.596,1.355,1.346,1.355
			c0.76,0,1.334-0.598,1.334-1.355C143.604,41.671,143.03,41.076,142.271,41.076z M142.267,43.267c-0.451,0-0.746-0.332-0.746-0.824
			c0-0.504,0.295-0.834,0.746-0.834c0.457,0,0.758,0.33,0.758,0.834C143.024,42.935,142.724,43.267,142.267,43.267z"/>
		<path fill="#B3B3B3" d="M119.966,41.076c-0.768,0-1.354,0.596-1.354,1.367c0,0.758,0.594,1.355,1.354,1.355
			c0.75,0,1.338-0.598,1.338-1.355C121.304,41.671,120.716,41.076,119.966,41.076z M119.962,43.267
			c-0.455,0-0.756-0.332-0.756-0.824c0-0.504,0.301-0.834,0.756-0.834c0.451,0,0.748,0.33,0.748,0.834
			C120.71,42.935,120.413,43.267,119.962,43.267z"/>
		<path fill="#B3B3B3" d="M71.665,41.076c-0.76,0-1.35,0.596-1.35,1.367c0,0.758,0.598,1.355,1.35,1.355
			c0.758,0,1.344-0.598,1.344-1.355C73.009,41.671,72.423,41.076,71.665,41.076z M71.657,43.267c-0.447,0-0.744-0.332-0.744-0.824
			c0-0.504,0.297-0.834,0.744-0.834c0.455,0,0.76,0.33,0.76,0.834C72.417,42.935,72.112,43.267,71.657,43.267z"/>
		<path fill="#B3B3B3" d="M146.034,41.076c-0.277,0-0.451,0.08-0.678,0.307v-0.238h-0.578v2.576h0.578v-1.242
			c0-0.636,0.145-0.869,0.533-0.869c0.359,0,0.473,0.166,0.473,0.672v1.439h0.586v-1.579
			C146.948,41.418,146.653,41.076,146.034,41.076z"/>
		<path fill="#B3B3B3" d="M75.429,41.076c-0.277,0-0.441,0.08-0.668,0.307v-0.238h-0.582v2.576h0.582v-1.242
			c0-0.636,0.145-0.869,0.52-0.869c0.363,0,0.475,0.166,0.475,0.672v1.439h0.584v-1.579C76.339,41.418,76.042,41.076,75.429,41.076z
			"/>
		<path fill="#B3B3B3" d="M127.21,41.076c-0.277,0-0.453,0.08-0.68,0.307v-0.238h-0.574v2.576h0.574v-1.242
			c0-0.636,0.145-0.869,0.535-0.869c0.363,0,0.477,0.166,0.477,0.672v1.439h0.58v-1.579
			C128.122,41.418,127.829,41.076,127.21,41.076z"/>
	</g>
	<rect fill="#1A1A1A" width="29.36" height="29.39"/>
	<rect x="58.765" fill="#E6E6E6" width="29.393" height="29.39"/>
	<rect x="88.157" fill="#999999" width="29.395" height="29.39"/>
	<rect x="117.552" fill="#666666" width="29.396" height="29.39"/>
	<g>
		<path fill="#4D4D4D" d="M136.694,2.575c0,0-0.5,4.195-4.561,4.748c-4.076,0.576-4.502,4.002-4.795,7.266
			c-0.373,4.108-0.73,7.091-2.572,9.387c0,0,0.738,1.325,1.83-0.217c0,0,2.555-4.746,4.283-6.518c0,0-0.205-1.379-5.404,6.331
			c-0.037,0.057-0.061,0.087-0.061,0.087c0.021-0.03,0.043-0.058,0.061-0.087c0.371-0.563,2.385-3.833,2.979-9.229
			c0,0,0.148-5.063,3.977-6.385c3.816-1.345,4.492-2.728,5.107-5.472c0,0-0.904-1.629,0.152-2.486h-1.09
			C136.349,0.447,136.124,1.316,136.694,2.575z"/>
		<path fill="#4D4D4D" d="M131.448,12.162c0.48-0.805,1.242-2.258,2.58-2.481c0,0,0.279-0.002,0.238-0.266
			c-0.043-0.289-0.361-0.719-0.971-0.523c0,0-2.156,0.479-2.738,2.779c-0.039,0.155-0.084,0.355,0.006,0.465
			C130.563,12.135,130.956,12.972,131.448,12.162z"/>
		<path fill="#4D4D4D" d="M138.196,11.13c-0.467-0.089-0.469,0.389-0.469,0.389s0.484,3.093-3.582,5.705c0,0-0.33,0.231-0.135,0.516
			c0.23,0.347,0.646,0.147,1.049-0.097c0.402-0.248,3.072-2.188,3.371-5.714C138.431,11.928,138.489,11.195,138.196,11.13z"/>
		<path fill="#4D4D4D" d="M142.917,4.733c-0.148-1.44-1.408-2.638-1.904-2.882c-0.748-0.368-0.783-0.422-1.059-0.001
			c-0.289,0.44,0.518,0.867,0.518,0.867c1.482,0.625,1.623,2.525,1.623,2.525l-1.584,2.773c-1.088,1.556-0.98,3.475-0.98,3.475
			s0.885,7.149-7.691,9.151c0,0-2.426,0.897-4.162,3.203l5.9-8.789v-0.001l0.004-0.004c0.033-0.052,0.361-0.504,1.547-1.179
			c0,0,2.072-1.518,0.584-2.658c-1.49-1.13-2.178,0.38-2.465,1.408c-0.287,1.029,0.479,0.551,0.479,0.551
			c-0.316-1.072,0.619-2.152,1.414-1.365c0.695,0.694-0.039,1.299-0.217,1.432c-0.006,0.005-0.795,0.519-1.713,1.628
			c-1.08,1.075-3.121,3.604-6.705,9.496l0.172,1.092c0,0,2.035-2.768,4.541-3.781c2.4-0.97,9.436-0.483,9.443-10.15
			c0.129-3.434,1.756-4.212,2.188-5.871c0.537,0.238,1.82,0.188,4.1-3.112V1.247C146.28,2.181,143.806,5.534,142.917,4.733z"/>
		<path fill="#4D4D4D" d="M136.724,8.481c0,0,0.59,0.958,1.502-0.598c0.914-1.576,2.594-3.287,2.594-3.287s0.123-0.565-0.324-0.231
			c-0.443,0.356-2.201,2.434-2.547,3.029c-0.342,0.616-0.75,0.955-0.734,0.571c0.014-0.408,0.836-1.505,0.836-1.505
			s0.168-0.928-0.422-0.327C137.032,6.724,136.194,8.036,136.724,8.481z"/>
		<path fill="#4D4D4D" d="M117.552,24.535v1.898c0.971-0.897,3.51-3.492,9.535,2.175c0.316,0.299,0.658,0.557,1.021,0.781h2.35
			c-0.666-0.324-1.318-0.733-1.947-1.224C122.198,23.159,118.331,24.241,117.552,24.535z"/>
		<path fill="#4D4D4D" d="M146.948,18.658v-2.696c-0.061,0.651-0.254,2.058-0.848,3.797c-2.953,7.812-9.328,5.92-9.328,5.92
			c2.277,2.208,1.91,3.238,1.164,3.711h2.063C140.86,29.225,144.241,27.979,146.948,18.658z"/>
		<path fill="#4D4D4D" d="M125.745,4.354c2.518-3.293,7.625,1.301,7.625,1.301c0.406,0.396,0.852,0.474,1.119-0.007
			c0.143-0.254-0.182-0.597-0.182-0.597c-6.74-5.13-8.906-1.511-8.906-1.511c-2.008,3.449-7.721,7.925-7.85,8.027v0.954
			C122.284,10.006,125.745,4.354,125.745,4.354z"/>
		<path fill="#4D4D4D" d="M141.7,9.353c0,0-0.262-0.208-0.418,0.23c-0.158,0.427,0.176,0.692,0.176,0.692s3.092,2.521,5.49,2.921
			v-0.491l-0.068,0.009C144.028,11.825,141.7,9.353,141.7,9.353z"/>
	</g>
	<g>
		<path fill="#333333" d="M5.878,6.092C6.947,6.323,8.03,4.708,6.507,2.676C4.968,0.649,3.372,4.208,3.372,4.208
			C3.112,5.531,4.842,5.833,5.878,6.092z"/>
		<path fill="#333333" d="M0.998,10.987c0,0,0.1,3.377,1.15,0.533C2.905,9.56,1.141,8.859,0,8.605v1.262
			C1.066,10.078,0.998,10.987,0.998,10.987z"/>
		<path fill="#333333" d="M15.554,26.585c0.818-2.998,2.781-4.889,5-6.067c0.016,0.719,0.373,5.135,6.365,8.872h2.441v-1.126
			c-1.604-0.62-7.992-3.355-7.984-8.162c1.424-0.626,2.857-1.015,4.111-1.248c0.344,0.743,0.559,1.545,0.584,2.394
			c0,0,0.096,1.684,0.787,2.229c0,0,1.559-2.098,0.668-4.887c1.137-0.093,1.834-0.07,1.834-0.07v-1.624
			c-0.889-0.007-1.762,0.032-2.549,0.114c-0.873-1.381-2.424-2.887-5.09-4.322c-0.311-0.301-0.799-0.748-0.799-0.748
			c-0.844-0.487-1.439-0.658-1.439-0.658l-0.045-0.129l-1.49-1.01c-0.441-1.25-1.4-3.54-3.123-4.972l-0.074-0.18L14.29,4.558
			l-0.822-0.252c-0.396-0.166-0.816-0.273-0.816-0.273c-0.148-0.054-0.063-0.085-0.063-0.085L12.472,3.82c0,0,0-0.107-0.518-0.381
			l-0.479-0.35c-0.541-0.865-0.953-1.476-0.953-1.476c-0.078-0.209-0.174-0.385-0.174-0.385c-0.182-0.196-0.393-0.404-0.393-0.404
			c-0.145-0.193-0.34-0.48-0.34-0.48C9.544,0.228,9.46,0.112,9.37,0H7.914c1.323,1.681,3.489,5.012,2.21,6.916
			C8.626,9.21,5.513,14.561,0,13.445v1.09c1.203,0.278,3.704,0.549,6.435-0.864c0.613-0.324,1.201-0.682,1.713-1.045
			c0,0,0.775-0.522,1.4-1.055l0.123-0.149l0.258-0.216c0,0,0.791-0.693,1.262-1.204l0.203-0.308l0.223-0.283l0.238-0.208
			c0,0,0.863-1.035,1.045-1.548c0.279-0.814,3.854,1.179,3.033,4.627l-0.002-0.005c0,0-0.484,1.058-0.633,2.037
			c-0.102,0.303-0.217,0.604-0.338,0.931l-0.012,0.031c0,0-0.395,0.353-0.459,0.527c-0.09,0.239,0.021,0.195-0.34,1.077
			l-0.432,2.076c-0.949,3.53-1.387,7.53,0.986,10.434h3.875C17.772,28.99,16.378,28.097,15.554,26.585z M16.263,19.995l0.305-0.737
			l0.092-0.479c0,0,0.031-0.223,0.426-0.64c0.373-0.422,0.469-0.426,0.564-0.582l0.43-0.841c0.002-0.021,0.021-0.229,0.113-0.444
			c0.115-0.273,0.211-0.39,0.211-0.39l0.068-0.113l0.055-0.174l0.105-0.238l0.111-0.392c0,0-0.029-0.215,0.102-0.427
			c0.064-0.107,0.053-0.196,0.039-0.235c-0.02-0.042-0.014-0.297,0-0.36c0.018-0.103,0.021-0.743,0.023-0.933
			c-0.041-0.059-0.072-0.08-0.072-0.08s3.664,1.602,5.789,4.442c-6.174,1.378-8.514,5.526-9.379,8.442
			C14.735,24.367,14.827,22.45,16.263,19.995z"/>
	</g>
	<rect x="29.36" fill="#F2F2F2" width="29.404" height="29.39"/>
	<g>
		<path d="M49.337,25.367c0.01,0.019,0.652,0.944,1.162,1.715c0,0,0.768,1.222,1.021,2.309h1.844
			c-0.459-0.755-1.135-1.635-2.074-2.666C50.925,26.341,48.976,24.737,49.337,25.367z"/>
		<path d="M55.872,11.638c-1.473,0.139-3.326,0.778-4.496,1.353c-2.447,1.203-4.65,3.4-6.188,6.191
			c-0.297,0.518-0.563,1.094-0.805,1.688l-0.027,0.088l-0.084,0.235c0,0-2.094-0.165-3.063-0.366
			c-0.936-0.192-1.883-0.419-2.852-0.404c-1.883,0.011-3.514,0.622-4.59,1.736c-1.025,1.063-1.941,2.625-1.406,3.862
			c0.281,0.685,0.943,1.048,1.684,1.371c1.867,0.849,4.363,0.632,5.963-0.517c0.6-0.435,1.031-1.035,1.496-1.651l0.174-0.238
			l0.135-0.161c0.641-0.786,0.637-1.007,0.58-1.066c-0.061-0.057-0.262-0.026-0.889,0.47l-0.158,0.117
			c-1.359,0.985-3.102,1.775-4.799,1.787c-0.609,0.001-1.682-0.144-2.098-0.621c-0.205-0.229-0.305-0.855-0.246-1.242
			c0.137-0.911,1.26-1.88,2.234-2.221c2.457-0.851,3.66-0.296,7.447,0.297l-0.277,0.958c-0.26,0.974-0.479,1.992-0.662,3.101
			c-0.07,0.428-0.105,0.868-0.107,1.293c-0.002,0.581,0.057,1.148,0.176,1.69h1.893c-0.188-0.333-0.348-0.687-0.467-1.045
			c-0.209-0.631-0.305-1.29-0.305-2.031c0.002-0.771,0.123-1.628,0.381-2.684l0.523-1.238l1.699,0.354
			c8.338,1.792,10.707-0.464,12.025-1.98V11.87C57.765,11.634,56.685,11.563,55.872,11.638z M58.056,15.581
			c-0.359,1.158-2.17,6.447-8.688,5.953l-2.49-0.133l-1.406-0.177l0.195-0.282c1.236-5.447,7.254-7.232,9.91-7.508
			c1.777-0.185,1.836,0.573,2.313,1.183C58.106,14.882,58.161,15.217,58.056,15.581z"/>
		<path d="M46.427,10.36c-0.768-6.058-3.895-4.647-4.01-4.253c-0.027,0.081-0.039,0.106,0.02,0.135
			c2.631,1.581,3.566,6.748,3.176,9.394C45.636,16.447,46.854,13.657,46.427,10.36z"/>
		<path d="M47.687,13.449c0,0-0.285,0.492,0.303-0.063c1.453-1.378,5.318-4.646,10.775-4.788V6.54
			C58.765,6.54,52.284,6.667,47.687,13.449z"/>
		<path d="M45.142,0.116c-0.859,1.751-0.18,4.479,1.846,6.503c0.207,0.206,0.443,0.384,0.703,0.52
			c0.016,0.007,0.031,0.013,0.031,0.013C47.753,7.161,47.845,7.2,47.845,7.2c0.096,0.065,0.271,0.148,0.342,0.181
			c0.023,0.01,0.043,0.019,0.064,0.027c0.143,0.043,0.377,0.032,0.377,0.032c0.178,0.036,0.357,0.046,0.357,0.046
			c0.152-0.003,0.281-0.025,0.281-0.025c0.102,0.048,0.203,0.066,0.203,0.066c0.166,0.032,0.65,0.08,0.65,0.08
			c0.076,0.009,0.438-0.005,0.438-0.005c0.029,0,0.16-0.021,0.16-0.021c0.266-0.048,1-0.234,1-0.234
			c0.996-0.313,1.367-0.61,1.412-0.647c0.609-0.547,0.99-1.324,0.967-2.315c-0.082-3.536-5.975-3.393-5.914-0.788
			c0.055,2.278,1.793,1.983,3.004,1.603c1.152-0.359,1.57-2.16-0.23-2.378c-1.801-0.22-1.395,1.369-1.332,1.184
			c0.064-0.191,0.691-1.648,1.697-0.464c0.879,1.047-1.064,1.834-2.068,1.266c-0.791-0.458-0.928-1.551,0.25-2.279
			c1.15-0.715,4.477,0.529,3.479,2.868c-0.994,2.358-4.945,2.232-6.799-0.592C44.661,2.46,45.415,0.58,45.729,0h-0.48L45.142,0.116z
			"/>
		<path d="M41.8,19.999l0.408,0.18l0.316,0.156c0.26,0.136,1.053,0.522,1.316,0.455l0.004-0.002l-0.004,0.002
			c0.021-0.005,0.037-0.013,0.051-0.024l0.004-0.007c0.045-0.05,0.064-0.12,0.059-0.213c-0.01-0.193-0.055-0.168-0.234-0.443
			l-0.223-0.157l0.133-0.311c0.137-0.332,0.227-0.74,0.27-0.95l0.008-0.031c0.209-0.963,0.281-1.994,0.221-3.053
			c-0.082-1.441-0.418-2.941-0.982-4.381c-1.047-2.714-3.566-5.065-6.135-4.811c-0.297,0.102-0.682,0.216-0.682,0.216
			c-0.186,0.061-0.441,0.101-0.459,0.104c-0.002,0.001-0.006,0.002-0.008,0.003c-0.006,0.002-0.012,0.005-0.016,0.008
			c-0.014,0.007-0.029,0.013-0.043,0.02c-0.197,0.097-0.402,0.23-0.402,0.23c-0.383,0.339-1.002,1.628-1.002,1.628
			c-0.334,0.702-0.404,1.213-0.42,1.39c-0.08,1.379,0.256,2.806,0.479,3.53C35.489,16.898,38.767,18.5,41.8,19.999z M37.157,8.439
			c0.068-0.071,0.816-0.667,1.473-0.223c0.58,0.409,1.014,0.36,1.34,0.709c5.434,5.845,3.043,10.818,3.043,10.818
			S31.452,14.49,37.157,8.439z"/>
	</g>
	<g>
		<path fill="#CCCCCC" d="M83.964,22.188c2.34-3.151,3.299-7.285,1.375-9.491c-2.305-2.669-5.08-3.414-7.383-2.68
			c-0.82-1.393-1.438-2.707-1.902-3.887c1.131-1.493,2.117-3.202,2.635-6.13h-2.297c-0.119,0.819-0.418,2.051-1.125,3.68
			C74.878,2.129,74.755,0.87,74.733,0h-1.875c0.023,1.251,0.275,3.259,1.336,5.884c-0.352,0.621-0.754,1.293-1.217,2.027
			c-3.928,6.062-6.783,13.404,0.848,17.643c3.268,1.821,6.664,0.401,9.1-2.137c0.338,2.777-0.035,4.937-0.283,5.974h2.07
			C84.751,28.186,84.726,25.477,83.964,22.188z M77.192,23.382c-3.426,0.274-8.279-3.093-5.613-10.322
			c0.957-2.573,2.176-4.093,3.357-5.534c0.463,0.963,1.041,1.991,1.75,3.078c-1.037,0.625-1.898,1.606-2.492,2.882
			c-1.664,3.551,0.141,8.18,4.787,7.321c0,0,1.967-0.456,0.459-2.133c0,0-0.531-0.497-1.508,0.309
			c-1.727,1.44-4.393-2.82-1.664-6.144c0.381-0.471,0.777-0.841,1.184-1.112c0.33,0.452,0.684,0.937,1.061,1.408
			c2.021,2.587,3.188,5.115,3.834,7.407C80.899,22.098,78.956,23.244,77.192,23.382z M79.677,12.627
			c-0.369-0.519-0.709-1.005-1.027-1.504c2.902-0.874,5.793,1.939,5.91,4.342c0.07,1.339-0.473,2.762-1.359,4.027
			C82.444,17.252,81.327,14.886,79.677,12.627z"/>
		<path fill="#CCCCCC" d="M64.56,24.597c-0.338-0.471-0.994-1.171-1.262-1.838c-0.457-1.135-0.992-2.294-0.07-2.813
			c0.898-0.493,1.75,0.833,1.75,0.833s-1.189,0.597-0.17,1.515c1,0.915,3.348-0.304,1.428-2.388
			c-2.057-2.239-7.895-1.616-3.793,4.78l3.701,4.705h3.766C68.476,28.814,66.644,27.475,64.56,24.597z"/>
	</g>
	<g>
		<path fill="#808080" d="M113.021,17.944c0.254,0,0.836,0.075,0.836,0.075l1.574,0.337l-0.283-0.173l-0.352-0.217
			c0,0-0.738-0.292-1.195-0.372c-0.279-0.05-0.889-0.191-1.586-0.191c-0.701,0-1.396-0.252-1.396,0.692c0,0.196,0,0,0,0.196
			c0,0.131-2.496,4.722-2.496,4.722l2.102,0.178l0.641-2.247l-0.055-1.836c0,0,0.061-0.438,0.375-0.623
			c0.318-0.193,0.383-0.26,0.768-0.454C112.337,17.84,112.769,17.944,113.021,17.944z"/>
		<path fill="#808080" d="M116.005,20.638l-0.189-0.312c0,0-0.127-0.326-0.256-0.517c-0.129-0.188-0.447-0.501-0.447-0.501
			s-0.379-0.391-0.631-0.515c-0.252-0.125-0.252-0.062-0.432-0.187c-0.193-0.123-0.832,0-1.084,0c-0.254,0-0.758,0.187-0.758,0.187
			l-0.641,0.32c0,0,0.32,0.571,0.447,0.756c0.127,0.197,0.51,0.521,0.51,0.521s0,0,0.254,0.125c0.252,0.124,1.016,0.309,1.33,0.309
			c0.311,0,0.25,0,0.561,0c0.316,0,0,0,0.955,0.06C116.575,20.947,116.005,20.638,116.005,20.638z"/>
		<path fill="#808080" d="M106.218,17.778c0.197,0.165,0.773,0.458,0.994,0.516c0.229,0.056,0.229,0.056,0.229,0.056
			s0.404,0.007,0.584-0.046c0.184-0.054,0.686-0.244,0.686-0.244c0.76-2.097-2.039-2.986-2.039-2.986
			c1.158,0.609,1.518,1.4,1.521,2.014c-0.029-0.034-0.057-0.065-0.082-0.089c-0.162-0.132-0.488-0.54-0.676-0.563
			c-0.186-0.022-0.154-0.063-0.375-0.121c-0.223-0.057-0.662-0.022-0.662-0.022s-0.367,0.028-0.553,0.083
			c-0.18,0.052-0.428,0.183-0.428,0.183l-0.283,0.094c0,0-0.521-0.103,0.1,0.351c0.625,0.478,0.428,0.307,0.625,0.478
			C106.06,17.647,106.019,17.614,106.218,17.778z"/>
		<path fill="#808080" d="M110.38,25.656c-0.461-0.403-0.371-0.298-0.648-0.586c-0.223-0.24-0.947-0.422-1.1-0.473
			c-0.154-0.051-0.533-0.261-1.961-0.673c-1.43-0.408-1.273-0.236-1.273-0.236s0.102,0.518,0.307,0.819
			c0.207,0.303,0.104,0.25,0.309,0.563c0.205,0.305,0.205,0.254,1.119,0.702c0.92,0.464,0.816,0.209,1.279,0.26
			c0.455,0.054,0.354,0,1.064-0.051c0.719-0.052,0.41,0,0.563,0c0.156,0,0.662,0,0.662,0S110.837,26.064,110.38,25.656z"/>
		<path fill="#808080" d="M96.966,12.703l-1.027-0.058l-1.146,0.223l-1.283,0.769l-0.561-0.014l0.051,0.761
			c0,0,1.914-0.656,1.852-0.509s-0.359,0.604-0.359,0.604s0.313,0.835,0.465,0.951c0.148,0.116,0.77,0.006,0.926-0.029
			c0.164-0.037,0.75-0.285,0.75-0.285l0.156-0.761l-0.742,0.081l-1.035,0.205l-0.035-0.832l0.639-0.214l0.641-0.215l0.594-0.029
			l0.895-0.394l-0.301-0.356L96.966,12.703z"/>
		<path fill="#808080" d="M112.069,29.39h2.455c1.068-0.761,2.098-1.74,3.027-2.966v-3.368
			C115.976,26.499,114.294,28.43,112.069,29.39z"/>
		<path fill="#808080" d="M88.157,27.157c8.158,3.931,12.574-2.282,13.709-5.425c-0.121,2.999,0.127,5.887,1.285,7.658h1.551
			c-4.035-2.714-1.453-12.508-0.822-15.503c0.715-3.445,2.09-3.528,2.572-3.615c0.33-0.07,0.9,0.03,1.295,0.122l0.043,0.011
			c0,0,0.994,0.204,2.557,0.681c0.857,0.23,1.73,0.46,2.514,0.616c1.576,0.299,3.82,1.381,4.691,2.442v-2.975
			c-0.984-0.391-1.959-0.667-2.488-0.701c-0.744-0.048-2.379-0.384-4.398-0.884c-0.711-0.216-1.406-0.408-2.061-0.545
			c-2.926-0.813-4.104,0.064-4.104,0.064c-0.846,0.441-1.408,1.299-1.547,2.783c-0.104,1.102-0.365,2.771-0.609,4.649
			c-1.191,0.814-1.84,2.743-1.84,2.743s-1.438,4.384-6.666,2.766c-2.875-0.889-4.191-3.499-4.24-4.984
			c1.764,1.578,5.004,2.351,8.916,0.788c2.959-1.168,2.479-8.15,1.881-12.409c0.941-2.352,3.355-0.994,3.355-0.994
			C112.595,9.251,116.05,0,116.05,0h-2.193c-2.725,6.887-7.746,4.967-9.84,3.854c-2.795-1.484-3.799,0.19-3.799,0.19L100.2,4.161
			c-0.082-0.506-0.16-0.922-0.223-1.252c-0.766-4.033-6.754-2.093-11.152,0.009c-0.244,0.117-0.465,0.235-0.668,0.341v1.502
			c0.873-1.753,8.939-2.631,8.939-2.631s1.955-0.315,2.613,2.495c0.602,2.521,1.063,11.116-2.373,12.285
			c-1.27,0.448-6.287,1.967-9.18-5.31v7.366c5.783,8.381,11.65,3.053,12.828,0.918c0.633-1.16,0.938-1.161,1.082-0.947
			c-0.029,0.304-0.059,0.603-0.08,0.896c-5.996,12.134-13.83,4.686-13.83,4.686V27.157z"/>
		<path fill="#808080" d="M89.47,9.235c0.145,0.056,0.766,0.088,0.766,0.088l1.055-0.129l1.197-0.439l0.902-1.428l-0.217,1.236
			l-0.014,0.693l0.139,1.063c0,0,0.006,0.781-0.002,0.937c-0.01,0.16,0.045,0.437,0.045,0.437l0.748,0.11c0,0,0.139,0,0.406,0.059
			l0.156,0.009l0.111-0.005c0,0,0.176-0.087,0.342-0.333c0,0,0,0,0.115-0.153c0.111-0.154,0.18-0.374,0.18-0.374l-0.527-0.256
			l-0.203-0.753c0,0-0.234-0.483-0.283-0.85c-0.023-0.144-0.703-2.179-0.703-2.179l0.313-0.016l0.547,0.48
			c0,0,0.576,0.161,0.717,0.268l0.232,0.054l0.313,0.105c0,0,0,0,0.156,0.01c0.158,0.009,0.365,0.023,0.523,0.033
			c0.158,0.01,0.635-0.013,0.635-0.013s0.479-0.239,0.906-0.318c0.426-0.081,0.572-0.521,0.572-0.521s0.145-0.12,0.152-0.463
			C98.751,6.471,98.8,6.021,98.8,6.021s-0.619-0.155-1.014-0.129c0,0-1.246,0.061-1.818,0.149c0,0-0.932,0.182-1.428,0.363
			c-0.268,0.091-0.596,0.387-0.596,0.387l-0.641,0.154l-0.58-0.084l-0.313,0.053c0,0-1.564,0.33-2.064,0.5
			c-0.469,0.16-0.77,0.318-0.77,0.318l-0.391,0.226l-0.549,0.52C88.638,8.477,89.173,9.126,89.47,9.235z"/>
	</g>
	<g>
		<polygon fill="#B3B3B3" points="10.483,55.105 12.925,55.105 12.925,47.025 10.483,47.025 10.483,47.997 8.272,47.997 
			8.272,50.137 10.483,50.137 10.483,51.511 8.272,51.511 8.272,53.657 10.483,53.657 		"/>
		<polygon fill="#B3B3B3" points="14.989,49.273 19.37,49.273 19.37,54.949 21.794,54.949 21.794,47.089 14.989,47.089 		"/>
		<rect x="25.044" y="47.025" fill="#B3B3B3" width="2.402" height="8.08"/>
		<polygon fill="#B3B3B3" points="6.806,54.949 6.806,47.089 0,47.089 0,49.273 4.376,49.273 4.376,54.949 		"/>
		<polygon fill="#B3B3B3" points="88.003,56.158 85.659,56.158 85.659,62.384 93.104,62.384 93.104,60.201 88.003,60.201 		"/>
		<polygon fill="#B3B3B3" points="34.937,56.158 32.603,56.158 32.603,62.384 40.536,62.384 40.536,60.201 34.937,60.201 		"/>
		<polygon fill="#B3B3B3" points="29.886,52.685 35.548,52.685 35.548,55.594 37.976,55.594 37.976,52.685 42.815,52.685 
			42.815,50.474 29.886,50.474 		"/>
		<path fill="#B3B3B3" d="M40.317,41.487h-7.91v6.993h7.91V41.487z M37.976,46.316h-3.234v-2.664h3.234V46.316z"/>
		<polygon fill="#B3B3B3" points="58.577,47.025 56.149,47.025 56.149,55.105 58.577,55.105 58.577,51.875 61.013,51.875 
			61.013,49.738 58.577,49.738 		"/>
		<polygon fill="#B3B3B3" points="92.942,49.738 92.942,47.025 90.513,47.025 90.513,55.105 92.942,55.105 92.942,51.875 
			95.356,51.875 95.356,49.738 		"/>
		<polygon fill="#B3B3B3" points="76.118,49.685 74.353,49.685 74.353,47.025 72.083,47.025 72.083,55.105 74.353,55.105 
			74.353,51.88 76.118,51.88 76.118,55.105 78.386,55.105 78.386,47.025 76.118,47.025 		"/>
		<polygon fill="#B3B3B3" points="70.304,49.331 70.304,47.185 63.034,47.185 63.034,49.331 65.187,49.331 62.442,53.875 
			64.481,55.105 66.667,51.232 68.854,55.105 70.892,53.875 68.149,49.331 		"/>
		<polygon fill="#B3B3B3" points="88.571,52.523 84.05,52.523 84.05,49.371 88.407,49.371 88.407,47.185 81.62,47.185 81.62,54.708 
			88.571,54.708 		"/>
		<path fill="#B3B3B3" d="M51.315,49.113c1.402-0.474,2.424-1.756,2.424-3.261c0-0.659-0.193-1.248-0.535-1.734h1.416v-2.146h-3.305
			v-1.814h-2.441v1.814h-3.293v2.146h1.404c-0.342,0.486-0.535,1.075-0.535,1.734c0,1.505,1.023,2.787,2.424,3.261v1.361h-3.502
			v2.211h9.455v-2.211h-3.512V49.113z M50.095,44.5c0.756,0,1.383,0.608,1.383,1.352c0,0.747-0.627,1.354-1.383,1.354
			s-1.383-0.606-1.383-1.354C48.712,45.109,49.339,44.5,50.095,44.5z"/>
		<path fill="#B3B3B3" d="M9.245,55.914c-2.173,0-3.917,1.723-3.917,3.846c0,2.115,1.744,3.838,3.917,3.838
			c2.174,0,3.928-1.723,3.928-3.838C13.173,57.636,11.419,55.914,9.245,55.914z M9.245,61.455c-0.916,0-1.615-0.764-1.615-1.695
			c0-0.939,0.699-1.701,1.615-1.701c0.867,0,1.611,0.762,1.611,1.701C10.856,60.691,10.112,61.455,9.245,61.455z"/>
	</g>
</g>
</svg>
