<?xml version="1.0" encoding="utf-8"?>
<!-- Generator: Adobe Illustrator 15.0.0, SVG Export Plug-In  -->
<!DOCTYPE svg PUBLIC "-//W3C//DTD SVG 1.1//EN" "http://www.w3.org/Graphics/SVG/1.1/DTD/svg11.dtd" [
	<!ENTITY ns_flows "http://ns.adobe.com/Flows/1.0/">
]>
<svg version="1.1"
	 xmlns="http://www.w3.org/2000/svg" xmlns:xlink="http://www.w3.org/1999/xlink" xmlns:a="http://ns.adobe.com/AdobeSVGViewerExtensions/3.0/"
	 x="0px" y="0px" width="475px" height="402px" viewBox="0 36.401 475 402" enable-background="new 0 36.401 475 402"
	 xml:space="preserve">
<defs>
</defs>
<path fill="#00ADEF" d="M396.283,220.697c-1.14-0.576-2.282-0.863-3.433-0.863c-2.479,0-4.661,0.951-6.563,2.857l-18.273,18.271
	c-1.708,1.715-2.566,3.806-2.566,6.283v72.513c0,12.565-4.463,23.313-13.415,32.264c-8.944,8.945-19.701,13.418-32.264,13.418
	H82.227c-12.564,0-23.319-4.473-32.265-13.418c-8.946-8.948-13.418-19.698-13.418-32.264V82.221
	c0-12.562,4.472-23.316,13.418-32.264c8.945-8.946,19.7-13.418,32.265-13.418h237.544c4.188,0,8.47,0.571,12.847,1.714
	c1.144,0.378,1.999,0.571,2.563,0.571c2.478,0,4.668-0.949,6.57-2.852l13.989-13.99c2.282-2.281,3.143-5.043,2.566-8.276
	c-0.571-3.046-2.286-5.236-5.142-6.567C342.894,2.387,331.754,0,319.763,0H82.227c-22.65,0-42.019,8.042-58.103,24.126
	C8.042,40.212,0,59.577,0,82.228v237.543c0,22.646,8.042,42.014,24.125,58.098C40.209,393.958,59.577,402,82.228,402h237.541
	c22.646,0,42.017-8.042,58.101-24.131c16.085-16.084,24.135-35.449,24.135-58.098v-90.797
	C402.002,224.98,400.089,222.222,396.283,220.697z"/>
<path fill="#00ADEF" d="M467.95,56.815l-31.408-31.409c-4.568-4.567-9.996-6.851-16.279-6.851c-6.275,0-11.707,2.284-16.271,6.851
	L219.266,210.131l-75.084-75.089c-4.569-4.57-9.995-6.851-16.274-6.851c-6.28,0-11.704,2.281-16.274,6.851l-31.404,31.405
	c-4.568,4.568-6.854,9.994-6.854,16.277c0,6.28,2.286,11.704,6.854,16.274l122.767,122.767c4.569,4.57,9.995,6.852,16.274,6.852
	c6.278,0,11.704-2.279,16.273-6.852L467.947,89.362c4.565-4.567,6.854-9.994,6.854-16.274
	C474.802,66.808,472.519,61.382,467.95,56.815z"/>
</svg>
